<svg xmlns="http://www.w3.org/2000/svg" width="1440" height="454" fill="none" viewBox="0 0 1440 454"><path fill="#34B07C" fill-rule="evenodd" d="M15.3185 562.924C15.8374 559.974 16.4158 557.02 16.8506 554.032C19.428 536.314 20.2463 519.115 19.5062 502.884C18.6488 483.883 15.6172 466.185 11.5395 450.412C7.46177 434.639 2.37626 420.825 -2.35135 409.356C-7.07871 397.886 -11.3636 388.753 -13.995 382.364C-16.6263 375.975 -17.6199 372.317 -15.9356 371.832C-14.2513 371.347 -10.0654 374.079 -4.29197 379.778C1.48142 385.477 8.886 394.162 16.4421 405.51C23.9982 416.858 31.6342 430.902 37.891 447.197C44.1478 463.493 48.9531 482.031 50.8626 502.065C52.4833 519.142 52.1238 537.27 49.4326 555.861C49.0887 558.237 48.7208 560.575 48.3091 562.925H15.3176L15.3185 562.924Z" clip-rule="evenodd"/><path fill="#34B07C" fill-rule="evenodd" d="M84.9637 562.925C91.5098 550.454 98.2756 538.577 104.499 527.447C111.204 515.454 117.263 504.269 122.195 494.003C125.072 488.006 127.587 482.342 129.626 477.068C131.665 471.795 133.208 466.918 134.376 462.452C135.519 458.038 136.264 454.029 136.751 450.531C137.237 447.034 137.444 444.059 137.593 441.591C137.742 439.123 137.885 437.164 138.13 435.82C138.374 434.477 138.758 433.738 139.432 433.644C140.105 433.551 141.053 434.116 142.113 435.347C143.174 436.579 144.373 438.496 145.484 441.023C146.595 443.551 147.571 446.694 148.242 450.437C148.913 454.179 149.209 458.487 149.008 463.256C148.816 468.075 148.175 473.381 146.94 479.056C145.705 484.73 143.917 490.806 141.654 497.126C137.794 507.929 132.628 519.612 126.562 531.894C121.643 541.854 116.081 552.269 110.551 562.925H84.9631L84.9637 562.925Z" clip-rule="evenodd"/><path fill="#34B07C" fill-rule="evenodd" d="M192.067 562.925C192.21 560.693 192.4 558.487 192.527 556.226C192.542 556.003 192.515 555.769 192.527 555.545C193.564 536.468 194.056 518.266 194.641 501.62C195.227 484.974 195.968 469.887 197.032 457.231C198.095 444.576 199.47 434.346 201.168 427.26C202.867 420.175 204.838 416.248 206.868 416.248C208.898 416.248 210.838 420.151 212.659 427.203C214.481 434.255 216.209 444.441 217.808 457.061C219.406 469.68 220.859 484.749 221.76 501.506C222.661 518.262 222.989 536.731 221.944 556.168C221.932 556.396 221.957 556.622 221.944 556.849C221.834 558.897 221.628 560.896 221.485 562.923H192.067L192.067 562.925Z" clip-rule="evenodd"/><path fill="#34B07C" fill-rule="evenodd" d="M526.149 408.468C525.39 408.46 524.159 409.049 522.549 410.265C520.708 411.655 518.369 413.866 515.807 416.84C513.245 419.814 510.478 423.559 507.84 428.098C505.203 432.638 502.719 437.983 500.792 443.992C499.028 449.503 497.769 455.572 497.115 462.109C496.461 468.647 496.449 475.655 497.192 482.97C498.299 493.769 500.851 505.251 504.852 517.122C508.854 528.993 514.287 541.245 520.48 553.639C521.743 556.166 523.022 558.637 524.311 561.113C524.815 562.088 525.335 563.031 525.843 563.999H551.431C550.142 561.515 548.881 559.09 547.6 556.572C546.361 554.123 545.156 551.674 543.923 549.193C537.875 537.026 532.417 525.189 528.065 513.906C523.714 502.622 520.496 491.891 518.566 481.787C517.255 474.965 516.477 468.432 516.268 462.345C516.059 456.258 516.414 450.606 517.111 445.41C518.617 434.104 521.882 425.051 524.235 418.778C525.411 415.642 526.316 413.179 526.763 411.446C527.21 409.713 527.17 408.724 526.456 408.513C526.367 408.487 526.259 408.467 526.15 408.466L526.149 408.468Z" clip-rule="evenodd"/><path fill="#34B07C" fill-rule="evenodd" d="M402.23 409.542C401.952 409.508 401.58 409.573 401.312 409.825C401.044 410.078 400.918 410.564 400.853 410.902C400.715 411.5 400.703 412.276 400.853 413.17C401.148 414.936 402.006 417.31 403.239 420.141C405.693 425.77 409.83 433.505 414.805 442.927C424.627 461.52 437.962 487.057 448.312 517.178C453.338 531.82 457.538 547.565 460.429 563.997H490.079C486.934 546.046 481.636 528.944 475.208 513.267C468.848 497.745 461.376 483.603 453.728 471.097C446.079 458.59 438.283 447.73 431.146 438.789C423.888 429.693 417.408 422.644 412.42 417.703C409.89 415.19 407.814 413.28 406.178 411.921C405.342 411.22 404.64 410.719 404.067 410.334C403.695 409.981 403.254 409.931 402.965 409.824C402.676 409.717 402.508 409.575 402.231 409.541L402.23 409.542Z" clip-rule="evenodd"/><path fill="#34B07C" fill-rule="evenodd" d="M348.347 439.544C346.789 439.868 347.33 443.776 349.342 450.565C351.355 457.355 354.811 467.059 358.842 479.041C362.873 491.023 367.463 505.254 370.946 521.14C373.856 534.416 375.985 548.855 376.308 563.995H400.593C399.924 547.918 396.963 532.732 392.856 518.963C387.972 502.592 381.576 488.173 375.313 476.295C369.05 464.418 362.934 455.114 358.152 448.812C353.371 442.51 349.905 439.217 348.347 439.541L348.347 439.544Z" clip-rule="evenodd"/><path fill="#34B07C" fill-rule="evenodd" d="M594.128 442.586C592.315 442.586 590.614 445.731 588.956 451.305C587.297 456.88 585.645 464.908 584.03 474.878C582.414 484.848 580.879 496.737 579.678 510.009C578.478 523.281 577.647 537.943 578.118 553.404C578.133 553.917 578.182 554.413 578.2 554.925C578.287 557.593 578.44 560.255 578.611 562.884H604.883C604.745 560.135 604.576 557.372 604.472 554.57C604.455 554.071 604.406 553.6 604.391 553.1C603.918 538.026 603.945 523.562 603.816 510.365C603.687 497.168 603.427 485.239 602.666 475.184C601.905 465.129 600.702 456.986 599.218 451.357C597.735 445.728 595.941 442.587 594.128 442.587L594.128 442.586Z" clip-rule="evenodd"/><path fill="#34B07C" fill-rule="evenodd" d="M15.3185 562.924C15.8374 559.974 16.4158 557.02 16.8506 554.032C19.428 536.314 20.2463 519.115 19.5062 502.884C18.6488 483.883 15.6172 466.185 11.5395 450.412C7.46177 434.639 2.37626 420.825 -2.35135 409.356C-7.07871 397.886 -11.3636 388.753 -13.995 382.364C-16.6263 375.975 -17.6199 372.317 -15.9356 371.832C-14.2513 371.347 -10.0654 374.079 -4.29197 379.778C1.48142 385.477 8.886 394.162 16.4421 405.51C23.9982 416.858 31.6342 430.902 37.891 447.197C44.1478 463.493 48.9531 482.031 50.8626 502.065C52.4833 519.142 52.1238 537.27 49.4326 555.861C49.0887 558.237 48.7208 560.575 48.3091 562.925H15.3176L15.3185 562.924Z" clip-rule="evenodd"/><path fill="#34B07C" fill-rule="evenodd" d="M84.9637 562.925C91.5098 550.454 98.2756 538.577 104.499 527.447C111.204 515.454 117.263 504.269 122.195 494.003C125.072 488.006 127.587 482.342 129.626 477.068C131.665 471.795 133.208 466.918 134.376 462.452C135.519 458.038 136.264 454.029 136.751 450.531C137.237 447.034 137.444 444.059 137.593 441.591C137.742 439.123 137.885 437.164 138.13 435.82C138.374 434.477 138.758 433.738 139.432 433.644C140.105 433.551 141.053 434.116 142.113 435.347C143.174 436.579 144.373 438.496 145.484 441.023C146.595 443.551 147.571 446.694 148.242 450.437C148.913 454.179 149.209 458.487 149.008 463.256C148.816 468.075 148.175 473.381 146.94 479.056C145.705 484.73 143.917 490.806 141.654 497.126C137.794 507.929 132.628 519.612 126.562 531.894C121.643 541.854 116.081 552.269 110.551 562.925H84.9631L84.9637 562.925Z" clip-rule="evenodd"/><path fill="#34B07C" fill-rule="evenodd" d="M192.067 562.925C192.21 560.693 192.4 558.487 192.527 556.226C192.542 556.003 192.515 555.769 192.527 555.545C193.564 536.468 194.056 518.266 194.641 501.62C195.227 484.974 195.968 469.887 197.032 457.231C198.095 444.576 199.47 434.346 201.168 427.26C202.867 420.175 204.838 416.248 206.868 416.248C208.898 416.248 210.838 420.151 212.659 427.203C214.481 434.255 216.209 444.441 217.808 457.061C219.406 469.68 220.859 484.749 221.76 501.506C222.661 518.262 222.989 536.731 221.944 556.168C221.932 556.396 221.957 556.622 221.944 556.849C221.834 558.897 221.628 560.896 221.485 562.923H192.067L192.067 562.925Z" clip-rule="evenodd"/><path fill="#34B07C" fill-rule="evenodd" d="M526.149 408.468C525.39 408.46 524.159 409.049 522.549 410.265C520.708 411.655 518.369 413.866 515.807 416.84C513.245 419.814 510.478 423.559 507.84 428.098C505.203 432.638 502.719 437.983 500.792 443.992C499.028 449.503 497.769 455.572 497.115 462.109C496.461 468.647 496.449 475.655 497.192 482.97C498.299 493.769 500.851 505.251 504.852 517.122C508.854 528.993 514.287 541.245 520.48 553.639C521.743 556.166 523.022 558.637 524.311 561.113C524.815 562.088 525.335 563.031 525.843 563.999H551.431C550.142 561.515 548.881 559.09 547.6 556.572C546.361 554.123 545.156 551.674 543.923 549.193C537.875 537.026 532.417 525.189 528.065 513.906C523.714 502.622 520.496 491.891 518.566 481.787C517.255 474.965 516.477 468.432 516.268 462.345C516.059 456.258 516.414 450.606 517.111 445.41C518.617 434.104 521.882 425.051 524.235 418.778C525.411 415.642 526.316 413.179 526.763 411.446C527.21 409.713 527.17 408.724 526.456 408.513C526.367 408.487 526.259 408.467 526.15 408.466L526.149 408.468Z" clip-rule="evenodd"/><path fill="#34B07C" fill-rule="evenodd" d="M402.23 409.542C401.952 409.508 401.58 409.573 401.312 409.825C401.044 410.078 400.918 410.564 400.853 410.902C400.715 411.5 400.703 412.276 400.853 413.17C401.148 414.936 402.006 417.31 403.239 420.141C405.693 425.77 409.83 433.505 414.805 442.927C424.627 461.52 437.962 487.057 448.312 517.178C453.338 531.82 457.538 547.565 460.429 563.997H490.079C486.934 546.046 481.636 528.944 475.208 513.267C468.848 497.745 461.376 483.603 453.728 471.097C446.079 458.59 438.283 447.73 431.146 438.789C423.888 429.693 417.408 422.644 412.42 417.703C409.89 415.19 407.814 413.28 406.178 411.921C405.342 411.22 404.64 410.719 404.067 410.334C403.695 409.981 403.254 409.931 402.965 409.824C402.676 409.717 402.508 409.575 402.231 409.541L402.23 409.542Z" clip-rule="evenodd"/><path fill="#34B07C" fill-rule="evenodd" d="M348.347 439.544C346.789 439.868 347.33 443.776 349.342 450.565C351.355 457.355 354.811 467.059 358.842 479.041C362.873 491.023 367.463 505.254 370.946 521.14C373.856 534.416 375.985 548.855 376.308 563.995H400.593C399.924 547.918 396.963 532.732 392.856 518.963C387.972 502.592 381.576 488.173 375.313 476.295C369.05 464.418 362.934 455.114 358.152 448.812C353.371 442.51 349.905 439.217 348.347 439.541L348.347 439.544Z" clip-rule="evenodd"/><path fill="#34B07C" fill-rule="evenodd" d="M594.128 442.586C592.315 442.586 590.614 445.731 588.956 451.305C587.297 456.88 585.645 464.908 584.03 474.878C582.414 484.848 580.879 496.737 579.678 510.009C578.478 523.281 577.647 537.943 578.118 553.404C578.133 553.917 578.182 554.413 578.2 554.925C578.287 557.593 578.44 560.255 578.611 562.884H604.883C604.745 560.135 604.576 557.372 604.472 554.57C604.455 554.071 604.406 553.6 604.391 553.1C603.918 538.026 603.945 523.562 603.816 510.365C603.687 497.168 603.427 485.239 602.666 475.184C601.905 465.129 600.702 456.986 599.218 451.357C597.735 445.728 595.941 442.587 594.128 442.587L594.128 442.586Z" clip-rule="evenodd"/><path fill="#34B07C" fill-rule="evenodd" d="M37.2343 547.757C37.7672 544.728 38.3611 541.694 38.8076 538.625C41.4547 520.43 42.2951 502.767 41.5349 486.098C40.6543 466.585 37.541 448.409 33.3534 432.212C29.1659 416.016 23.9431 401.829 19.0882 390.048C14.2334 378.269 9.83305 368.89 7.13058 362.328C4.42811 355.767 3.40783 352.011 5.13767 351.512C6.86738 351.014 11.1663 353.82 17.0953 359.673C23.0244 365.525 30.6285 374.444 38.3883 386.097C46.1481 397.751 53.9898 412.174 60.4155 428.907C66.841 445.643 71.7757 464.682 73.7366 485.255C75.401 502.792 75.0319 521.409 72.2682 540.501C71.915 542.941 71.5372 545.342 71.1143 547.755H37.2354L37.2343 547.757Z" clip-rule="evenodd"/><path fill="#34B07C" fill-rule="evenodd" d="M108.767 547.757C115.49 534.95 122.438 522.753 128.829 511.324C135.715 499.009 141.937 487.521 147.002 476.98C149.956 470.821 152.539 465.004 154.633 459.589C156.727 454.174 158.311 449.166 159.511 444.579C160.685 440.046 161.45 435.929 161.95 432.337C162.45 428.745 162.662 425.69 162.815 423.156C162.968 420.621 163.115 418.609 163.366 417.229C163.617 415.85 164.011 415.091 164.703 414.995C165.395 414.898 166.368 415.479 167.457 416.743C168.546 418.008 169.778 419.978 170.918 422.573C172.059 425.168 173.061 428.396 173.751 432.24C174.44 436.083 174.743 440.507 174.537 445.404C174.341 450.354 173.681 455.802 172.413 461.63C171.145 467.457 169.309 473.696 166.985 480.186C163.021 491.28 157.716 503.277 151.486 515.891C146.434 526.12 140.722 536.815 135.044 547.759H108.767L108.767 547.757Z" clip-rule="evenodd"/><path fill="#34B07C" fill-rule="evenodd" d="M218.739 547.757C218.885 545.465 219.08 543.2 219.211 540.879C219.226 540.65 219.199 540.409 219.211 540.179C220.276 520.588 220.781 501.897 221.382 484.801C221.983 467.705 222.744 452.211 223.837 439.216C224.929 426.22 226.341 415.713 228.085 408.437C229.829 401.16 231.854 397.128 233.938 397.128C236.023 397.128 238.016 401.136 239.886 408.378C241.756 415.621 243.531 426.081 245.173 439.041C246.815 452.001 248.307 467.476 249.232 484.685C250.158 501.894 250.494 520.861 249.421 540.822C249.409 541.056 249.433 541.288 249.421 541.521C249.307 543.624 249.096 545.677 248.949 547.759H218.74L218.739 547.757Z" clip-rule="evenodd"/><path fill="#34B07C" fill-rule="evenodd" d="M561.842 389.138C561.062 389.13 559.799 389.735 558.145 390.984C556.255 392.411 553.853 394.682 551.222 397.736C548.591 400.79 545.749 404.636 543.04 409.297C540.331 413.959 537.781 419.449 535.802 425.619C533.991 431.279 532.697 437.511 532.026 444.224C531.354 450.938 531.341 458.135 532.104 465.648C533.242 476.738 535.862 488.528 539.971 500.721C544.081 512.913 549.66 525.494 556.021 538.223C557.317 540.818 558.631 543.356 559.954 545.898C560.472 546.899 561.006 547.868 561.528 548.862H587.805C586.481 546.311 585.186 543.821 583.871 541.235C582.598 538.719 581.361 536.204 580.095 533.657C573.883 521.162 568.278 509.005 563.81 497.417C559.341 485.83 556.036 474.809 554.054 464.432C552.708 457.427 551.909 450.718 551.694 444.467C551.479 438.216 551.844 432.412 552.559 427.076C554.106 415.465 557.46 406.167 559.876 399.727C561.084 396.506 562.013 393.977 562.472 392.197C562.931 390.417 562.89 389.402 562.157 389.185C562.066 389.158 561.954 389.138 561.843 389.137L561.842 389.138Z" clip-rule="evenodd"/><path fill="#34B07C" fill-rule="evenodd" d="M434.564 390.243C434.279 390.208 433.896 390.274 433.621 390.534C433.346 390.793 433.216 391.293 433.149 391.64C433.008 392.254 432.996 393.051 433.149 393.968C433.453 395.782 434.334 398.22 435.6 401.128C438.12 406.908 442.369 414.852 447.478 424.528C457.565 443.622 471.259 469.848 481.887 500.782C487.048 515.819 491.362 531.989 494.33 548.863H524.78C521.55 530.427 516.11 512.865 509.508 496.766C502.977 480.825 495.304 466.303 487.449 453.459C479.594 440.615 471.588 429.463 464.259 420.28C456.805 410.939 450.15 403.701 445.028 398.627C442.429 396.046 440.297 394.085 438.617 392.69C437.759 391.97 437.037 391.455 436.449 391.06C436.067 390.697 435.615 390.646 435.318 390.536C435.021 390.426 434.848 390.28 434.564 390.245L434.564 390.243Z" clip-rule="evenodd"/><path fill="#34B07C" fill-rule="evenodd" d="M379.235 421.046C377.635 421.379 378.191 425.392 380.257 432.365C382.324 439.337 385.873 449.303 390.013 461.609C394.153 473.915 398.866 488.529 402.443 504.843C405.432 518.477 407.619 533.305 407.95 548.855H432.889C432.202 532.346 429.161 516.749 424.943 502.609C419.927 485.798 413.359 470.99 406.927 458.792C400.495 446.595 394.215 437.041 389.304 430.568C384.393 424.096 380.834 420.714 379.234 421.047L379.235 421.046Z" clip-rule="evenodd"/><path fill="#34B07C" fill-rule="evenodd" d="M631.66 424.18C629.799 424.18 628.052 427.409 626.348 433.134C624.645 438.859 622.949 447.103 621.29 457.343C619.631 467.582 618.054 479.792 616.821 493.422C615.589 507.051 614.735 522.108 615.219 537.986C615.234 538.514 615.284 539.022 615.303 539.548C615.392 542.288 615.55 545.022 615.725 547.722H642.705C642.563 544.899 642.391 542.062 642.284 539.184C642.267 538.671 642.216 538.188 642.2 537.674C641.715 522.193 641.742 507.339 641.61 493.786C641.477 480.233 641.211 467.982 640.429 457.656C639.648 447.329 638.411 438.968 636.888 433.187C635.365 427.406 633.522 424.18 631.661 424.18L631.66 424.18Z" clip-rule="evenodd"/><path fill="#34B07C" fill-rule="evenodd" d="M656.394 437.031C654.74 437.348 654.869 440.812 656.001 446.795C657.133 452.778 659.279 461.294 661.508 471.814C663.738 482.333 665.992 494.881 667.802 508.878C669.397 521.211 670.599 534.709 671.5 548.857H696.676C695.64 534.185 693.693 520.126 690.854 507.323C687.68 493.007 683.462 480.228 678.896 469.675C674.33 459.122 669.433 450.79 665.364 445.191C661.296 439.593 658.05 436.713 656.396 437.03L656.394 437.031Z" clip-rule="evenodd"/><path fill="#34B07C" fill-rule="evenodd" d="M4.43364 552.45C4.48978 549.814 4.51062 547.177 4.43364 544.494C4.37456 542.611 4.2277 540.703 4.09456 538.799C3.27737 527.109 1.02733 515.876 -2.82242 505.593C-6.67241 495.312 -12.0879 485.974 -18.6908 477.831C-24.7192 470.272 -31.7129 463.745 -38.7637 458.36C-45.8146 452.975 -52.9488 448.743 -59.2436 445.421C-73.473 439.56 -81.6233 435.541 -80.8763 434.408C-80.0863 433.291 -70.3498 435.208 -53.479 439.684C-45.7349 442.479 -36.8852 446.488 -27.9816 451.911C-19.0774 457.335 -10.1674 464.212 -2.41548 472.43C5.7439 481.187 12.5624 491.343 17.3863 502.495C22.2103 513.646 25.0703 525.775 25.8631 538.254C25.9923 540.286 26.0411 542.323 26.0663 544.325C26.1085 547.07 26.0418 549.76 25.9308 552.449H4.43361L4.43364 552.45Z" clip-rule="evenodd"/><path fill="#34B07C" fill-rule="evenodd" d="M75.1579 552.45C75.6172 549.838 76.1292 547.223 76.5141 544.578C78.7958 528.895 79.52 513.668 78.8648 499.302C78.1058 482.482 75.422 466.815 71.8125 452.853C68.203 438.891 63.701 426.663 59.5161 416.509C55.3315 406.355 51.5384 398.271 49.209 392.615C46.8796 386.96 46.0001 383.722 47.4911 383.292C48.9821 382.862 52.6877 385.281 57.7982 390.326C62.909 395.371 69.4634 403.059 76.1522 413.104C82.841 423.15 89.6003 435.581 95.1391 450.007C100.678 464.432 104.931 480.844 106.622 498.577C108.056 513.694 107.738 529.742 105.356 546.197C105.051 548.3 104.726 550.37 104.361 552.45H75.1573L75.1579 552.45Z" clip-rule="evenodd"/><path fill="#34B07C" fill-rule="evenodd" d="M136.812 552.45C142.607 541.411 148.596 530.897 154.104 521.045C160.041 510.43 165.404 500.527 169.77 491.441C172.316 486.131 174.543 481.118 176.347 476.45C178.152 471.782 179.518 467.465 180.552 463.511C181.564 459.604 182.223 456.055 182.654 452.959C183.085 449.863 183.268 447.23 183.4 445.045C183.532 442.86 183.658 441.126 183.875 439.936C184.091 438.747 184.431 438.093 185.028 438.01C185.624 437.927 186.462 438.428 187.401 439.518C188.34 440.608 189.402 442.306 190.385 444.543C191.368 446.78 192.232 449.563 192.826 452.875C193.421 456.188 193.682 460.002 193.505 464.223C193.335 468.489 192.767 473.186 191.674 478.209C190.58 483.231 188.998 488.61 186.994 494.204C183.578 503.767 179.005 514.109 173.635 524.98C169.28 533.797 164.357 543.016 159.462 552.449H136.812L136.812 552.45Z" clip-rule="evenodd"/><path fill="#34B07C" fill-rule="evenodd" d="M231.609 552.45C231.735 550.474 231.904 548.521 232.016 546.521C232.028 546.323 232.006 546.115 232.016 545.918C232.934 529.031 233.37 512.918 233.888 498.182C234.406 483.446 235.062 470.091 236.004 458.888C236.945 447.686 238.162 438.629 239.666 432.357C241.169 426.085 242.914 422.609 244.711 422.609C246.508 422.609 248.225 426.064 249.838 432.307C251.45 438.55 252.98 447.567 254.395 458.738C255.81 469.908 257.096 483.249 257.894 498.082C258.691 512.915 258.981 529.264 258.056 546.47C258.047 546.671 258.066 546.871 258.056 547.073C257.958 548.885 257.776 550.655 257.65 552.449H231.608L231.609 552.45Z" clip-rule="evenodd"/><path fill="#34B07C" fill-rule="evenodd" d="M527.351 415.718C526.678 415.712 525.589 416.233 524.164 417.309C522.534 418.54 520.464 420.497 518.196 423.13C515.928 425.762 513.478 429.077 511.143 433.096C508.808 437.114 506.61 441.846 504.904 447.165C503.343 452.043 502.228 457.415 501.649 463.203C501.07 468.99 501.059 475.194 501.717 481.668C502.697 491.228 504.956 501.392 508.498 511.901C512.04 522.41 516.85 533.256 522.332 544.227C523.45 546.464 524.582 548.652 525.723 550.844C526.17 551.706 526.63 552.541 527.079 553.398H549.729C548.588 551.199 547.472 549.053 546.338 546.824C545.241 544.655 544.175 542.487 543.083 540.291C537.729 529.521 532.898 519.042 529.046 509.053C525.194 499.065 522.345 489.565 520.637 480.622C519.476 474.583 518.788 468.8 518.602 463.412C518.417 458.024 518.732 453.021 519.348 448.422C520.682 438.413 523.572 430.4 525.655 424.848C526.696 422.071 527.497 419.891 527.893 418.357C528.289 416.823 528.253 415.948 527.622 415.761C527.543 415.738 527.447 415.72 527.351 415.719L527.351 415.718Z" clip-rule="evenodd"/><path fill="#34B07C" fill-rule="evenodd" d="M417.649 416.672C417.404 416.641 417.074 416.699 416.837 416.922C416.6 417.146 416.488 417.576 416.43 417.876C416.309 418.405 416.298 419.092 416.43 419.883C416.692 421.446 417.452 423.547 418.543 426.054C420.715 431.037 424.378 437.884 428.782 446.224C437.476 462.683 449.28 485.29 458.442 511.953C462.891 524.915 466.609 538.853 469.168 553.398H495.416C492.631 537.507 487.942 522.369 482.252 508.491C476.622 494.751 470.008 482.233 463.237 471.161C456.467 460.089 449.565 450.476 443.248 442.561C436.823 434.509 431.087 428.27 426.671 423.896C424.432 421.671 422.593 419.981 421.146 418.778C420.406 418.157 419.784 417.713 419.277 417.373C418.947 417.06 418.557 417.016 418.302 416.921C418.046 416.827 417.897 416.701 417.652 416.671L417.649 416.672Z" clip-rule="evenodd"/><path fill="#34B07C" fill-rule="evenodd" d="M369.944 443.237C368.565 443.524 369.044 446.983 370.826 452.993C372.607 459.003 375.666 467.594 379.235 478.201C382.803 488.808 386.866 501.406 389.949 515.468C392.526 527.22 394.411 540.002 394.696 553.406H416.194C415.602 539.175 412.981 525.731 409.344 513.542C405.021 499.051 399.359 486.287 393.815 475.773C388.271 465.259 382.857 457.023 378.625 451.445C374.392 445.866 371.323 442.951 369.944 443.238L369.944 443.237Z" clip-rule="evenodd"/><path fill="#34B07C" fill-rule="evenodd" d="M587.534 445.932C585.93 445.932 584.424 448.715 582.956 453.65C581.487 458.585 580.025 465.691 578.595 474.518C577.165 483.344 575.806 493.869 574.743 505.617C573.681 517.365 572.945 530.343 573.363 544.03C573.375 544.484 573.419 544.923 573.435 545.376C573.512 547.738 573.647 550.094 573.799 552.421H597.055C596.933 549.988 596.784 547.543 596.691 545.062C596.677 544.62 596.633 544.204 596.619 543.76C596.201 530.417 596.224 517.613 596.11 505.93C595.996 494.248 595.766 483.688 595.093 474.786C594.419 465.885 593.353 458.677 592.04 453.694C590.727 448.712 589.139 445.931 587.534 445.931L587.534 445.932Z" clip-rule="evenodd"/><path fill="#34B07C" fill-rule="evenodd" d="M355.137 552.45C354.678 549.838 354.166 547.223 353.781 544.578C351.499 528.895 350.775 513.668 351.43 499.302C352.189 482.482 354.873 466.815 358.482 452.853C362.092 438.891 366.594 426.663 370.779 416.509C374.963 406.355 378.756 398.271 381.086 392.615C383.415 386.96 384.295 383.722 382.804 383.292C381.313 382.862 377.607 385.281 372.497 390.326C367.386 395.371 360.831 403.059 354.143 413.104C347.454 423.15 340.695 435.581 335.156 450.007C329.617 464.432 325.363 480.844 323.673 498.577C322.239 513.694 322.557 529.742 324.939 546.197C325.243 548.3 325.569 550.37 325.934 552.45H355.138L355.137 552.45Z" clip-rule="evenodd"/><path fill="#34B07C" fill-rule="evenodd" d="M268.185 415.718C268.857 415.712 269.946 416.233 271.372 417.309C273.001 418.54 275.072 420.497 277.34 423.13C279.608 425.762 282.058 429.077 284.392 433.096C286.727 437.114 288.926 441.846 290.631 447.165C292.193 452.043 293.307 457.415 293.886 463.203C294.465 468.99 294.476 475.194 293.819 481.668C292.839 491.228 290.579 501.392 287.037 511.901C283.495 522.41 278.686 533.256 273.203 544.227C272.086 546.464 270.953 548.652 269.813 550.844C269.366 551.706 268.906 552.541 268.456 553.398H245.806C246.947 551.199 248.063 549.053 249.197 546.824C250.294 544.655 251.361 542.487 252.452 540.291C257.806 529.521 262.638 519.042 266.49 509.053C270.341 499.065 273.19 489.565 274.899 480.622C276.059 474.583 276.748 468.8 276.933 463.412C277.118 458.024 276.804 453.021 276.187 448.422C274.854 438.413 271.963 430.4 269.88 424.848C268.839 422.071 268.038 419.891 267.642 418.357C267.247 416.823 267.282 415.948 267.914 415.761C267.993 415.738 268.089 415.72 268.185 415.719L268.185 415.718Z" clip-rule="evenodd"/><path fill="#34B07C" fill-rule="evenodd" d="M586.284 424.24C586.529 424.21 586.859 424.267 587.096 424.491C587.333 424.714 587.445 425.145 587.503 425.444C587.624 425.973 587.635 426.66 587.503 427.451C587.241 429.014 586.481 431.116 585.39 433.623C583.218 438.605 579.555 445.452 575.151 453.793C566.457 470.251 554.653 492.858 545.491 519.522C541.042 532.483 537.324 546.421 534.765 560.967H508.518C511.302 545.076 515.991 529.937 521.681 516.06C527.311 502.32 533.925 489.802 540.696 478.729C547.466 467.658 554.368 458.045 560.685 450.129C567.11 442.078 572.847 435.838 577.262 431.464C579.502 429.239 581.34 427.549 582.787 426.346C583.527 425.725 584.149 425.282 584.656 424.941C584.986 424.628 585.376 424.585 585.632 424.49C585.887 424.395 586.036 424.269 586.282 424.239L586.284 424.24Z" clip-rule="evenodd"/><path fill="#34B07C" fill-rule="evenodd" d="M697.702 443.237C699.081 443.524 698.601 446.983 696.82 452.993C695.039 459.003 691.98 467.594 688.411 478.201C684.843 488.808 680.78 501.406 677.696 515.468C675.12 527.22 673.235 540.002 672.949 553.406H651.452C652.044 539.175 654.665 525.731 658.301 513.542C662.625 499.051 668.287 486.287 673.831 475.773C679.375 465.259 684.788 457.023 689.021 451.445C693.254 445.866 696.322 442.951 697.702 443.238L697.702 443.237Z" clip-rule="evenodd"/><path fill="#34B07C" fill-rule="evenodd" d="M156.546 441.391C158.151 441.391 159.656 444.174 161.124 449.109C162.593 454.044 164.055 461.15 165.485 469.977C166.915 478.803 168.274 489.328 169.337 501.076C170.399 512.824 171.135 525.802 170.718 539.489C170.705 539.943 170.662 540.382 170.645 540.835C170.568 543.197 170.433 545.553 170.282 547.88H147.025C147.148 545.447 147.297 543.002 147.389 540.521C147.403 540.079 147.448 539.663 147.461 539.219C147.879 525.876 147.856 513.072 147.97 501.389C148.084 489.707 148.314 479.147 148.988 470.245C149.661 461.344 150.727 454.136 152.04 449.153C153.353 444.171 154.941 441.39 156.546 441.39L156.546 441.391Z" clip-rule="evenodd"/><path fill="#34B07C" fill-rule="evenodd" d="M316.601 450.957C318.027 451.23 317.916 454.216 316.94 459.374C315.964 464.531 314.114 471.871 312.193 480.938C310.271 490.005 308.328 500.822 306.768 512.887C305.393 523.518 304.357 535.154 303.581 547.349H281.88C282.773 534.702 284.451 522.584 286.898 511.548C289.634 499.207 293.27 488.193 297.206 479.095C301.142 469.999 305.363 462.817 308.87 457.992C312.377 453.166 315.175 450.684 316.601 450.957L316.601 450.957Z" clip-rule="evenodd"/><path fill="#34B07C" fill-rule="evenodd" d="M670.859 562.925C670.922 559.947 670.946 556.968 670.859 553.937C670.792 551.81 670.626 549.654 670.476 547.504C669.553 534.298 667.011 521.608 662.662 509.993C658.313 498.378 652.195 487.83 644.736 478.631C637.926 470.093 630.025 462.719 622.06 456.636C614.095 450.552 606.035 445.771 598.924 442.019C582.85 435.398 573.643 430.857 574.486 429.578C575.379 428.315 586.378 430.482 605.436 435.538C614.184 438.695 624.182 443.224 634.24 449.351C644.299 455.478 654.364 463.246 663.121 472.528C672.338 482.422 680.041 493.894 685.49 506.493C690.94 519.091 694.171 532.793 695.066 546.89C695.212 549.186 695.267 551.487 695.296 553.749C695.344 556.85 695.269 559.888 695.143 562.926H670.858L670.859 562.925Z" clip-rule="evenodd"/><path fill="#34B07C" fill-rule="evenodd" d="M750.751 562.924C751.27 559.974 751.849 557.02 752.283 554.032C754.861 536.314 755.679 519.115 754.939 502.884C754.082 483.883 751.05 466.185 746.972 450.412C742.895 434.639 737.809 420.825 733.082 409.356C728.354 397.886 724.069 388.753 721.438 382.364C718.807 375.975 717.813 372.317 719.497 371.832C721.182 371.347 725.368 374.079 731.141 379.778C736.914 385.477 744.319 394.162 751.875 405.51C759.431 416.858 767.067 430.902 773.324 447.197C779.581 463.493 784.386 482.031 786.295 502.065C787.916 519.142 787.557 537.27 784.866 555.861C784.522 558.237 784.154 560.575 783.742 562.925H750.75L750.751 562.924Z" clip-rule="evenodd"/><path fill="#34B07C" fill-rule="evenodd" d="M820.397 562.925C826.943 550.454 833.708 538.577 839.932 527.447C846.637 515.454 852.696 504.269 857.628 494.003C860.505 488.006 863.02 482.342 865.059 477.068C867.098 471.795 868.641 466.918 869.809 462.452C870.952 458.038 871.697 454.029 872.183 450.531C872.67 447.034 872.877 444.059 873.026 441.591C873.175 439.123 873.318 437.164 873.562 435.82C873.807 434.477 874.191 433.738 874.865 433.644C875.538 433.551 876.485 434.116 877.546 435.347C878.607 436.579 879.806 438.496 880.917 441.023C882.027 443.551 883.003 446.694 883.675 450.437C884.346 454.179 884.642 458.487 884.441 463.256C884.249 468.075 883.607 473.381 882.372 479.056C881.137 484.73 879.35 490.806 877.087 497.126C873.227 507.929 868.061 519.612 861.995 531.894C857.076 541.854 851.514 552.269 845.984 562.925H820.396L820.397 562.925Z" clip-rule="evenodd"/><path fill="#34B07C" fill-rule="evenodd" d="M1180.46 562.925C1180.32 560.693 1180.13 558.487 1180 556.226C1179.99 556.003 1180.02 555.769 1180 555.545C1178.97 536.468 1178.48 518.266 1177.89 501.62C1177.3 484.974 1176.56 469.887 1175.5 457.231C1174.44 444.576 1173.06 434.346 1171.36 427.26C1169.66 420.175 1167.69 416.248 1165.66 416.248C1163.63 416.248 1161.69 420.151 1159.87 427.203C1158.05 434.255 1156.32 444.441 1154.72 457.061C1153.13 469.68 1151.67 484.749 1150.77 501.506C1149.87 518.262 1149.54 536.731 1150.59 556.168C1150.6 556.396 1150.57 556.622 1150.59 556.849C1150.7 558.897 1150.9 560.896 1151.05 562.923H1180.46L1180.46 562.925Z" clip-rule="evenodd"/><path fill="#34B07C" fill-rule="evenodd" d="M1261.58 408.468C1260.82 408.46 1259.59 409.049 1257.98 410.265C1256.14 411.655 1253.8 413.866 1251.24 416.84C1248.68 419.814 1245.91 423.559 1243.27 428.098C1240.64 432.638 1238.15 437.983 1236.23 443.992C1234.46 449.503 1233.2 455.572 1232.55 462.109C1231.89 468.647 1231.88 475.655 1232.62 482.97C1233.73 493.769 1236.28 505.251 1240.29 517.122C1244.29 528.993 1249.72 541.245 1255.91 553.639C1257.18 556.166 1258.45 558.637 1259.74 561.113C1260.25 562.088 1260.77 563.031 1261.28 563.999H1286.86C1285.57 561.515 1284.31 559.09 1283.03 556.572C1281.79 554.123 1280.59 551.674 1279.36 549.193C1273.31 537.026 1267.85 525.189 1263.5 513.906C1259.15 502.622 1255.93 491.891 1254 481.787C1252.69 474.965 1251.91 468.432 1251.7 462.345C1251.49 456.258 1251.85 450.606 1252.54 445.41C1254.05 434.104 1257.32 425.051 1259.67 418.778C1260.84 415.642 1261.75 413.179 1262.2 411.446C1262.64 409.713 1262.6 408.724 1261.89 408.513C1261.8 408.487 1261.69 408.467 1261.58 408.466L1261.58 408.468Z" clip-rule="evenodd"/><path fill="#34B07C" fill-rule="evenodd" d="M970.302 409.542C970.579 409.508 970.952 409.573 971.219 409.825C971.487 410.078 971.613 410.564 971.678 410.902C971.816 411.5 971.828 412.276 971.678 413.17C971.383 414.936 970.525 417.31 969.292 420.141C966.838 425.77 962.701 433.505 957.726 442.927C947.904 461.52 934.569 487.057 924.219 517.178C919.194 531.82 914.993 547.565 912.102 563.997H882.452C885.597 546.046 890.895 528.944 897.323 513.267C903.683 497.745 911.155 483.603 918.803 471.097C926.452 458.59 934.248 447.73 941.385 438.789C948.643 429.693 955.123 422.644 960.111 417.703C962.641 415.19 964.717 413.28 966.353 411.921C967.189 411.22 967.891 410.719 968.464 410.334C968.836 409.981 969.277 409.931 969.566 409.824C969.855 409.717 970.023 409.575 970.3 409.541L970.302 409.542Z" clip-rule="evenodd"/><path fill="#34B07C" fill-rule="evenodd" d="M1024.18 439.544C1025.74 439.868 1025.2 443.776 1023.19 450.565C1021.18 457.355 1017.72 467.059 1013.69 479.041C1009.66 491.023 1005.07 505.254 1001.59 521.14C998.675 534.416 996.546 548.855 996.223 563.995H971.938C972.607 547.918 975.568 532.732 979.676 518.963C984.559 502.592 990.956 488.173 997.219 476.295C1003.48 464.418 1009.6 455.114 1014.38 448.812C1019.16 442.51 1022.63 439.217 1024.18 439.541V439.544Z" clip-rule="evenodd"/><path fill="#34B07C" fill-rule="evenodd" d="M1329.56 442.586C1327.75 442.586 1326.05 445.731 1324.39 451.305C1322.73 456.88 1321.08 464.908 1319.46 474.878C1317.85 484.848 1316.31 496.737 1315.11 510.009C1313.91 523.281 1313.08 537.943 1313.55 553.404C1313.57 553.917 1313.62 554.413 1313.63 554.925C1313.72 557.593 1313.87 560.255 1314.04 562.884H1340.32C1340.18 560.135 1340.01 557.372 1339.91 554.57C1339.89 554.071 1339.84 553.6 1339.82 553.1C1339.35 538.026 1339.38 523.562 1339.25 510.365C1339.12 497.168 1338.86 485.239 1338.1 475.184C1337.34 465.129 1336.14 456.986 1334.65 451.357C1333.17 445.728 1331.37 442.587 1329.56 442.587L1329.56 442.586Z" clip-rule="evenodd"/><path fill="#34B07C" fill-rule="evenodd" d="M670.859 562.925C670.922 559.947 670.946 556.968 670.859 553.937C670.792 551.81 670.626 549.654 670.476 547.504C669.553 534.298 667.011 521.608 662.662 509.993C658.313 498.378 652.195 487.83 644.736 478.631C637.926 470.093 630.025 462.719 622.06 456.636C614.095 450.552 606.035 445.771 598.924 442.019C582.85 435.398 573.643 430.857 574.486 429.578C575.379 428.315 586.378 430.482 605.436 435.538C614.184 438.695 624.182 443.224 634.24 449.351C644.299 455.478 654.364 463.246 663.121 472.528C672.338 482.422 680.041 493.894 685.49 506.493C690.94 519.091 694.171 532.793 695.066 546.89C695.212 549.186 695.267 551.487 695.296 553.749C695.344 556.85 695.269 559.888 695.143 562.926H670.858L670.859 562.925Z" clip-rule="evenodd"/><path fill="#34B07C" fill-rule="evenodd" d="M750.751 562.924C751.27 559.974 751.849 557.02 752.283 554.032C754.861 536.314 755.679 519.115 754.939 502.884C754.082 483.883 751.05 466.185 746.972 450.412C742.895 434.639 737.809 420.825 733.082 409.356C728.354 397.886 724.069 388.753 721.438 382.364C718.807 375.975 717.813 372.317 719.497 371.832C721.182 371.347 725.368 374.079 731.141 379.778C736.914 385.477 744.319 394.162 751.875 405.51C759.431 416.858 767.067 430.902 773.324 447.197C779.581 463.493 784.386 482.031 786.295 502.065C787.916 519.142 787.557 537.27 784.866 555.861C784.522 558.237 784.154 560.575 783.742 562.925H750.75L750.751 562.924Z" clip-rule="evenodd"/><path fill="#34B07C" fill-rule="evenodd" d="M820.397 562.925C826.943 550.454 833.708 538.577 839.932 527.447C846.637 515.454 852.696 504.269 857.628 494.003C860.505 488.006 863.02 482.342 865.059 477.068C867.098 471.795 868.641 466.918 869.809 462.452C870.952 458.038 871.697 454.029 872.183 450.531C872.67 447.034 872.877 444.059 873.026 441.591C873.175 439.123 873.318 437.164 873.562 435.82C873.807 434.477 874.191 433.738 874.865 433.644C875.538 433.551 876.485 434.116 877.546 435.347C878.607 436.579 879.806 438.496 880.917 441.023C882.027 443.551 883.003 446.694 883.675 450.437C884.346 454.179 884.642 458.487 884.441 463.256C884.249 468.075 883.607 473.381 882.372 479.056C881.137 484.73 879.35 490.806 877.087 497.126C873.227 507.929 868.061 519.612 861.995 531.894C857.076 541.854 851.514 552.269 845.984 562.925H820.396L820.397 562.925Z" clip-rule="evenodd"/><path fill="#34B07C" fill-rule="evenodd" d="M1180.46 562.925C1180.32 560.693 1180.13 558.487 1180 556.226C1179.99 556.003 1180.02 555.769 1180 555.545C1178.97 536.468 1178.48 518.266 1177.89 501.62C1177.3 484.974 1176.56 469.887 1175.5 457.231C1174.44 444.576 1173.06 434.346 1171.36 427.26C1169.66 420.175 1167.69 416.248 1165.66 416.248C1163.63 416.248 1161.69 420.151 1159.87 427.203C1158.05 434.255 1156.32 444.441 1154.72 457.061C1153.13 469.68 1151.67 484.749 1150.77 501.506C1149.87 518.262 1149.54 536.731 1150.59 556.168C1150.6 556.396 1150.57 556.622 1150.59 556.849C1150.7 558.897 1150.9 560.896 1151.05 562.923H1180.46L1180.46 562.925Z" clip-rule="evenodd"/><path fill="#34B07C" fill-rule="evenodd" d="M1261.58 408.468C1260.82 408.46 1259.59 409.049 1257.98 410.265C1256.14 411.655 1253.8 413.866 1251.24 416.84C1248.68 419.814 1245.91 423.559 1243.27 428.098C1240.64 432.638 1238.15 437.983 1236.23 443.992C1234.46 449.503 1233.2 455.572 1232.55 462.109C1231.89 468.647 1231.88 475.655 1232.62 482.97C1233.73 493.769 1236.28 505.251 1240.29 517.122C1244.29 528.993 1249.72 541.245 1255.91 553.639C1257.18 556.166 1258.45 558.637 1259.74 561.113C1260.25 562.088 1260.77 563.031 1261.28 563.999H1286.86C1285.57 561.515 1284.31 559.09 1283.03 556.572C1281.79 554.123 1280.59 551.674 1279.36 549.193C1273.31 537.026 1267.85 525.189 1263.5 513.906C1259.15 502.622 1255.93 491.891 1254 481.787C1252.69 474.965 1251.91 468.432 1251.7 462.345C1251.49 456.258 1251.85 450.606 1252.54 445.41C1254.05 434.104 1257.32 425.051 1259.67 418.778C1260.84 415.642 1261.75 413.179 1262.2 411.446C1262.64 409.713 1262.6 408.724 1261.89 408.513C1261.8 408.487 1261.69 408.467 1261.58 408.466L1261.58 408.468Z" clip-rule="evenodd"/><path fill="#34B07C" fill-rule="evenodd" d="M970.302 409.542C970.579 409.508 970.952 409.573 971.219 409.825C971.487 410.078 971.613 410.564 971.678 410.902C971.816 411.5 971.828 412.276 971.678 413.17C971.383 414.936 970.525 417.31 969.292 420.141C966.838 425.77 962.701 433.505 957.726 442.927C947.904 461.52 934.569 487.057 924.219 517.178C919.194 531.82 914.993 547.565 912.102 563.997H882.452C885.597 546.046 890.895 528.944 897.323 513.267C903.683 497.745 911.155 483.603 918.803 471.097C926.452 458.59 934.248 447.73 941.385 438.789C948.643 429.693 955.123 422.644 960.111 417.703C962.641 415.19 964.717 413.28 966.353 411.921C967.189 411.22 967.891 410.719 968.464 410.334C968.836 409.981 969.277 409.931 969.566 409.824C969.855 409.717 970.023 409.575 970.3 409.541L970.302 409.542Z" clip-rule="evenodd"/><path fill="#34B07C" fill-rule="evenodd" d="M1024.18 439.544C1025.74 439.868 1025.2 443.776 1023.19 450.565C1021.18 457.355 1017.72 467.059 1013.69 479.041C1009.66 491.023 1005.07 505.254 1001.59 521.14C998.675 534.416 996.546 548.855 996.223 563.995H971.938C972.607 547.918 975.568 532.732 979.676 518.963C984.559 502.592 990.956 488.173 997.219 476.295C1003.48 464.418 1009.6 455.114 1014.38 448.812C1019.16 442.51 1022.63 439.217 1024.18 439.541V439.544Z" clip-rule="evenodd"/><path fill="#34B07C" fill-rule="evenodd" d="M1329.56 442.586C1327.75 442.586 1326.05 445.731 1324.39 451.305C1322.73 456.88 1321.08 464.908 1319.46 474.878C1317.85 484.848 1316.31 496.737 1315.11 510.009C1313.91 523.281 1313.08 537.943 1313.55 553.404C1313.57 553.917 1313.62 554.413 1313.63 554.925C1313.72 557.593 1313.87 560.255 1314.04 562.884H1340.32C1340.18 560.135 1340.01 557.372 1339.91 554.57C1339.89 554.071 1339.84 553.6 1339.82 553.1C1339.35 538.026 1339.38 523.562 1339.25 510.365C1339.12 497.168 1338.86 485.239 1338.1 475.184C1337.34 465.129 1336.14 456.986 1334.65 451.357C1333.17 445.728 1331.37 442.587 1329.56 442.587L1329.56 442.586Z" clip-rule="evenodd"/><path fill="#34B07C" fill-rule="evenodd" d="M690.617 547.757C690.682 544.699 690.706 541.64 690.617 538.527C690.548 536.342 690.378 534.129 690.223 531.921C689.275 518.359 686.665 505.327 682.199 493.399C677.733 481.47 671.45 470.637 663.79 461.192C656.796 452.423 648.682 444.85 640.502 438.603C632.322 432.355 624.046 427.445 616.743 423.592C600.235 416.793 590.78 412.13 591.648 410.816C592.564 409.519 603.86 411.744 623.431 416.937C632.415 420.179 642.682 424.83 653.012 431.122C663.342 437.414 673.679 445.391 682.672 454.925C692.138 465.085 700.048 476.866 705.645 489.803C711.241 502.741 714.559 516.812 715.479 531.289C715.629 533.646 715.685 536.01 715.715 538.333C715.764 541.517 715.687 544.637 715.557 547.757H690.619L690.617 547.757Z" clip-rule="evenodd"/><path fill="#34B07C" fill-rule="evenodd" d="M764.755 547.842C765.398 545.301 766.115 542.756 766.653 540.182C769.847 524.919 770.861 510.104 769.944 496.122C768.882 479.755 765.125 464.508 760.073 450.922C755.02 437.336 748.718 425.436 742.861 415.555C737.003 405.674 731.694 397.806 728.433 392.303C725.173 386.799 723.942 383.648 726.029 383.23C728.116 382.812 733.302 385.166 740.456 390.075C747.61 394.985 756.785 402.466 766.147 412.241C775.509 422.016 784.971 434.114 792.723 448.151C800.476 462.188 806.43 478.159 808.796 495.416C810.804 510.126 810.358 525.743 807.024 541.757C806.598 543.804 806.142 545.818 805.632 547.842H764.753L764.755 547.842Z" clip-rule="evenodd"/><path fill="#34B07C" fill-rule="evenodd" d="M844.2 547.757C850.922 534.95 857.87 522.753 864.261 511.324C871.148 499.009 877.37 487.521 882.435 476.98C885.389 470.821 887.972 465.004 890.066 459.589C892.159 454.174 893.744 449.166 894.944 444.579C896.118 440.046 896.882 435.929 897.382 432.337C897.882 428.745 898.095 425.69 898.248 423.156C898.4 420.621 898.547 418.609 898.798 417.229C899.05 415.85 899.444 415.091 900.136 414.995C900.828 414.898 901.8 415.479 902.889 416.743C903.979 418.008 905.21 419.978 906.351 422.573C907.492 425.168 908.494 428.396 909.183 432.24C909.873 436.083 910.176 440.507 909.97 445.404C909.773 450.354 909.114 455.802 907.846 461.63C906.577 467.457 904.742 473.696 902.417 480.186C898.454 491.28 893.148 503.277 886.919 515.891C881.867 526.12 876.155 536.815 870.476 547.759H844.199L844.2 547.757Z" clip-rule="evenodd"/><path fill="#34B07C" fill-rule="evenodd" d="M1153.77 547.757C1153.62 545.465 1153.43 543.2 1153.3 540.879C1153.28 540.65 1153.31 540.409 1153.3 540.179C1152.23 520.588 1151.73 501.897 1151.12 484.801C1150.52 467.705 1149.76 452.211 1148.67 439.216C1147.58 426.22 1146.17 415.713 1144.42 408.437C1142.68 401.16 1140.65 397.128 1138.57 397.128C1136.48 397.128 1134.49 401.136 1132.62 408.378C1130.75 415.621 1128.98 426.081 1127.33 439.041C1125.69 452.001 1124.2 467.476 1123.27 484.685C1122.35 501.894 1122.01 520.861 1123.08 540.822C1123.1 541.056 1123.07 541.288 1123.08 541.521C1123.2 543.624 1123.41 545.677 1123.56 547.759H1153.77L1153.77 547.757Z" clip-rule="evenodd"/><path fill="#34B07C" fill-rule="evenodd" d="M1297.28 389.138C1296.5 389.13 1295.23 389.735 1293.58 390.984C1291.69 392.411 1289.29 394.682 1286.65 397.736C1284.02 400.79 1281.18 404.636 1278.47 409.297C1275.76 413.959 1273.21 419.449 1271.24 425.619C1269.42 431.279 1268.13 437.511 1267.46 444.224C1266.79 450.938 1266.77 458.135 1267.54 465.648C1268.67 476.738 1271.3 488.528 1275.4 500.721C1279.51 512.913 1285.09 525.494 1291.45 538.223C1292.75 540.818 1294.06 543.356 1295.39 545.898C1295.91 546.899 1296.44 547.868 1296.96 548.862H1323.24C1321.91 546.311 1320.62 543.821 1319.3 541.235C1318.03 538.719 1316.79 536.204 1315.53 533.657C1309.32 521.162 1303.71 509.005 1299.24 497.417C1294.77 485.83 1291.47 474.809 1289.49 464.432C1288.14 457.427 1287.34 450.718 1287.13 444.467C1286.91 438.216 1287.28 432.412 1287.99 427.076C1289.54 415.465 1292.89 406.167 1295.31 399.727C1296.52 396.506 1297.45 393.977 1297.91 392.197C1298.36 390.417 1298.32 389.402 1297.59 389.185C1297.5 389.158 1297.39 389.138 1297.28 389.137L1297.28 389.138Z" clip-rule="evenodd"/><path fill="#34B07C" fill-rule="evenodd" d="M1170 390.243C1169.71 390.208 1169.33 390.274 1169.05 390.534C1168.78 390.793 1168.65 391.293 1168.58 391.64C1168.44 392.254 1168.43 393.051 1168.58 393.968C1168.89 395.782 1169.77 398.22 1171.03 401.128C1173.55 406.908 1177.8 414.852 1182.91 424.528C1193 443.622 1206.69 469.848 1217.32 500.782C1222.48 515.819 1226.8 531.989 1229.76 548.863H1260.21C1256.98 530.427 1251.54 512.865 1244.94 496.766C1238.41 480.825 1230.74 466.303 1222.88 453.459C1215.03 440.615 1207.02 429.463 1199.69 420.28C1192.24 410.939 1185.58 403.701 1180.46 398.627C1177.86 396.046 1175.73 394.085 1174.05 392.69C1173.19 391.97 1172.47 391.455 1171.88 391.06C1171.5 390.697 1171.05 390.646 1170.75 390.536C1170.45 390.426 1170.28 390.28 1170 390.245L1170 390.243Z" clip-rule="evenodd"/><path fill="#34B07C" fill-rule="evenodd" d="M993.297 421.046C994.897 421.379 994.341 425.392 992.274 432.365C990.208 439.337 986.659 449.303 982.519 461.609C978.379 473.915 973.665 488.529 970.088 504.843C967.099 518.477 964.913 533.305 964.581 548.855H939.643C940.329 532.346 943.37 516.749 947.588 502.609C952.604 485.798 959.173 470.99 965.605 458.792C972.036 446.595 978.316 437.041 983.227 430.568C988.138 424.096 991.697 420.714 993.297 421.047L993.297 421.046Z" clip-rule="evenodd"/><path fill="#34B07C" fill-rule="evenodd" d="M1367.09 424.18C1365.23 424.18 1363.48 427.409 1361.78 433.134C1360.08 438.859 1358.38 447.103 1356.72 457.343C1355.06 467.582 1353.49 479.792 1352.25 493.422C1351.02 507.051 1350.17 522.108 1350.65 537.986C1350.67 538.514 1350.72 539.022 1350.74 539.548C1350.82 542.288 1350.98 545.022 1351.16 547.722H1378.14C1378 544.899 1377.82 542.062 1377.72 539.184C1377.7 538.671 1377.65 538.188 1377.63 537.674C1377.15 522.193 1377.17 507.339 1377.04 493.786C1376.91 480.233 1376.64 467.982 1375.86 457.656C1375.08 447.329 1373.84 438.968 1372.32 433.187C1370.8 427.406 1368.95 424.18 1367.09 424.18L1367.09 424.18Z" clip-rule="evenodd"/><path fill="#34B07C" fill-rule="evenodd" d="M1391.83 437.031C1390.17 437.348 1390.3 440.812 1391.43 446.795C1392.57 452.778 1394.71 461.294 1396.94 471.814C1399.17 482.333 1401.42 494.881 1403.23 508.878C1404.83 521.211 1406.03 534.709 1406.93 548.857H1432.11C1431.07 534.185 1429.13 520.126 1426.29 507.323C1423.11 493.007 1418.89 480.228 1414.33 469.675C1409.76 459.122 1404.87 450.79 1400.8 445.191C1396.73 439.593 1393.48 436.713 1391.83 437.03L1391.83 437.031Z" clip-rule="evenodd"/><path fill="#34B07C" fill-rule="evenodd" d="M739.866 552.45C739.923 549.814 739.943 547.177 739.866 544.494C739.807 542.611 739.661 540.703 739.527 538.799C738.71 527.109 736.46 515.876 732.61 505.593C728.76 495.312 723.345 485.974 716.742 477.831C710.714 470.272 703.72 463.745 696.669 458.36C689.618 452.975 682.484 448.743 676.189 445.421C661.96 439.56 653.81 435.541 654.557 434.408C655.347 433.291 665.083 435.208 681.954 439.684C689.698 442.479 698.548 446.488 707.451 451.911C716.355 457.335 725.265 464.212 733.017 472.43C741.177 481.187 747.995 491.343 752.819 502.495C757.643 513.646 760.503 525.775 761.296 538.254C761.425 540.286 761.474 542.323 761.499 544.325C761.541 547.07 761.475 549.76 761.364 552.449H739.866V552.45Z" clip-rule="evenodd"/><path fill="#34B07C" fill-rule="evenodd" d="M813.042 552.45C813.501 549.838 814.013 547.223 814.398 544.578C816.68 528.895 817.404 513.668 816.749 499.302C815.99 482.482 813.306 466.815 809.697 452.853C806.087 438.891 801.585 426.663 797.4 416.509C793.215 406.355 789.422 398.271 787.093 392.615C784.764 386.96 783.884 383.722 785.375 383.292C786.866 382.862 790.572 385.281 795.682 390.326C800.793 395.371 807.347 403.059 814.036 413.104C820.725 423.15 827.484 435.581 833.023 450.007C838.562 464.432 842.815 480.844 844.506 498.577C845.94 513.694 845.622 529.742 843.24 546.197C842.935 548.3 842.61 550.37 842.245 552.45H813.041L813.042 552.45Z" clip-rule="evenodd"/><path fill="#34B07C" fill-rule="evenodd" d="M872.244 552.45C878.039 541.411 884.028 530.897 889.537 521.045C895.473 510.43 900.836 500.527 905.202 491.441C907.748 486.131 909.975 481.118 911.78 476.45C913.585 471.782 914.95 467.465 915.984 463.511C916.997 459.604 917.656 456.055 918.087 452.959C918.518 449.863 918.701 447.23 918.833 445.045C918.964 442.86 919.091 441.126 919.307 439.936C919.524 438.747 919.864 438.093 920.46 438.01C921.056 437.927 921.895 438.428 922.834 439.518C923.772 440.608 924.834 442.306 925.817 444.543C926.801 446.78 927.664 449.563 928.259 452.875C928.853 456.188 929.115 460.002 928.937 464.223C928.768 468.489 928.199 473.186 927.106 478.209C926.013 483.231 924.43 488.61 922.427 494.204C919.01 503.767 914.437 514.109 909.067 524.98C904.713 533.797 899.789 543.016 894.894 552.449H872.244L872.244 552.45Z" clip-rule="evenodd"/><path fill="#34B07C" fill-rule="evenodd" d="M1140.92 552.45C1140.8 550.474 1140.63 548.521 1140.52 546.521C1140.5 546.323 1140.53 546.115 1140.52 545.918C1139.6 529.031 1139.16 512.918 1138.64 498.182C1138.13 483.446 1137.47 470.091 1136.53 458.888C1135.59 447.686 1134.37 438.629 1132.87 432.357C1131.36 426.085 1129.62 422.609 1127.82 422.609C1126.02 422.609 1124.31 426.064 1122.69 432.307C1121.08 438.55 1119.55 447.567 1118.14 458.738C1116.72 469.908 1115.44 483.249 1114.64 498.082C1113.84 512.915 1113.55 529.264 1114.48 546.47C1114.49 546.671 1114.47 546.871 1114.48 547.073C1114.57 548.885 1114.76 550.655 1114.88 552.449H1140.92L1140.92 552.45Z" clip-rule="evenodd"/><path fill="#34B07C" fill-rule="evenodd" d="M1262.78 415.718C1262.11 415.712 1261.02 416.233 1259.6 417.309C1257.97 418.54 1255.9 420.497 1253.63 423.13C1251.36 425.762 1248.91 429.077 1246.58 433.096C1244.24 437.114 1242.04 441.846 1240.34 447.165C1238.78 452.043 1237.66 457.415 1237.08 463.203C1236.5 468.99 1236.49 475.194 1237.15 481.668C1238.13 491.228 1240.39 501.392 1243.93 511.901C1247.47 522.41 1252.28 533.256 1257.76 544.227C1258.88 546.464 1260.01 548.652 1261.16 550.844C1261.6 551.706 1262.06 552.541 1262.51 553.398H1285.16C1284.02 551.199 1282.9 549.053 1281.77 546.824C1280.67 544.655 1279.61 542.487 1278.52 540.291C1273.16 529.521 1268.33 519.042 1264.48 509.053C1260.63 499.065 1257.78 489.565 1256.07 480.622C1254.91 474.583 1254.22 468.8 1254.03 463.412C1253.85 458.024 1254.16 453.021 1254.78 448.422C1256.11 438.413 1259 430.4 1261.09 424.848C1262.13 422.071 1262.93 419.891 1263.33 418.357C1263.72 416.823 1263.69 415.948 1263.05 415.761C1262.98 415.738 1262.88 415.72 1262.78 415.719L1262.78 415.718Z" clip-rule="evenodd"/><path fill="#34B07C" fill-rule="evenodd" d="M1153.08 416.672C1152.84 416.641 1152.51 416.699 1152.27 416.922C1152.03 417.146 1151.92 417.576 1151.86 417.876C1151.74 418.405 1151.73 419.092 1151.86 419.883C1152.12 421.446 1152.88 423.547 1153.98 426.054C1156.15 431.037 1159.81 437.884 1164.21 446.224C1172.91 462.683 1184.71 485.29 1193.87 511.953C1198.32 524.915 1202.04 538.853 1204.6 553.398H1230.85C1228.06 537.507 1223.37 522.369 1217.68 508.491C1212.05 494.751 1205.44 482.233 1198.67 471.161C1191.9 460.089 1185 450.476 1178.68 442.561C1172.26 434.509 1166.52 428.27 1162.1 423.896C1159.86 421.671 1158.03 419.981 1156.58 418.778C1155.84 418.157 1155.22 417.713 1154.71 417.373C1154.38 417.06 1153.99 417.016 1153.73 416.921C1153.48 416.827 1153.33 416.701 1153.08 416.671L1153.08 416.672Z" clip-rule="evenodd"/><path fill="#34B07C" fill-rule="evenodd" d="M1002.56 443.237C1003.94 443.524 1003.46 446.983 1001.68 452.993C999.9 459.003 996.841 467.594 993.272 478.201C989.704 488.808 985.641 501.406 982.558 515.468C979.981 527.22 978.097 540.002 977.811 553.406H956.313C956.905 539.175 959.527 525.731 963.163 513.542C967.486 499.051 973.148 486.287 978.692 475.773C984.236 465.259 989.65 457.023 993.883 451.445C998.116 445.866 1001.18 442.951 1002.56 443.238L1002.56 443.237Z" clip-rule="evenodd"/><path fill="#34B07C" fill-rule="evenodd" d="M1322.97 445.932C1321.36 445.932 1319.86 448.715 1318.39 453.65C1316.92 458.585 1315.46 465.691 1314.03 474.518C1312.6 483.344 1311.24 493.869 1310.18 505.617C1309.11 517.365 1308.38 530.343 1308.8 544.03C1308.81 544.484 1308.85 544.923 1308.87 545.376C1308.94 547.738 1309.08 550.094 1309.23 552.421H1332.49C1332.37 549.988 1332.22 547.543 1332.12 545.062C1332.11 544.62 1332.07 544.204 1332.05 543.76C1331.63 530.417 1331.66 517.613 1331.54 505.93C1331.43 494.248 1331.2 483.688 1330.53 474.786C1329.85 465.885 1328.79 458.677 1327.47 453.694C1326.16 448.712 1324.57 445.931 1322.97 445.931L1322.97 445.932Z" clip-rule="evenodd"/><path fill="#34B07C" fill-rule="evenodd" d="M1017.39 552.45C1017.85 549.838 1018.37 547.223 1018.75 544.578C1021.03 528.895 1021.76 513.668 1021.1 499.302C1020.34 482.482 1017.66 466.815 1014.05 452.853C1010.44 438.891 1005.94 426.663 1001.75 416.509C997.568 406.355 993.775 398.271 991.446 392.615C989.116 386.96 988.237 383.722 989.728 383.292C991.219 382.862 994.924 385.281 1000.03 390.326C1005.15 395.371 1011.7 403.059 1018.39 413.104C1025.08 423.15 1031.84 435.581 1037.38 450.007C1042.91 464.432 1047.17 480.844 1048.86 498.577C1050.29 513.694 1049.97 529.742 1047.59 546.197C1047.29 548.3 1046.96 550.37 1046.6 552.45H1017.39L1017.39 552.45Z" clip-rule="evenodd"/><path fill="#34B07C" fill-rule="evenodd" d="M1104.32 415.718C1103.65 415.712 1102.56 416.233 1101.14 417.309C1099.51 418.54 1097.44 420.497 1095.17 423.13C1092.9 425.762 1090.45 429.077 1088.11 433.096C1085.78 437.114 1083.58 441.846 1081.88 447.165C1080.31 452.043 1079.2 457.415 1078.62 463.203C1078.04 468.99 1078.03 475.194 1078.69 481.668C1079.67 491.228 1081.93 501.392 1085.47 511.901C1089.01 522.41 1093.82 533.256 1099.3 544.227C1100.42 546.464 1101.55 548.652 1102.69 550.844C1103.14 551.706 1103.6 552.541 1104.05 553.398H1126.7C1125.56 551.199 1124.44 549.053 1123.31 546.824C1122.21 544.655 1121.15 542.487 1120.05 540.291C1114.7 529.521 1109.87 519.042 1106.02 509.053C1102.17 499.065 1099.32 489.565 1097.61 480.622C1096.45 474.583 1095.76 468.8 1095.57 463.412C1095.39 458.024 1095.7 453.021 1096.32 448.422C1097.65 438.413 1100.54 430.4 1102.63 424.848C1103.67 422.071 1104.47 419.891 1104.86 418.357C1105.26 416.823 1105.22 415.948 1104.59 415.761C1104.51 415.738 1104.42 415.72 1104.32 415.719L1104.32 415.718Z" clip-rule="evenodd"/><path fill="#34B07C" fill-rule="evenodd" d="M1321.72 424.24C1321.96 424.21 1322.29 424.267 1322.53 424.491C1322.77 424.714 1322.88 425.145 1322.94 425.444C1323.06 425.973 1323.07 426.66 1322.94 427.451C1322.67 429.014 1321.91 431.116 1320.82 433.623C1318.65 438.605 1314.99 445.452 1310.58 453.793C1301.89 470.251 1290.09 492.858 1280.92 519.522C1276.47 532.483 1272.76 546.421 1270.2 560.967H1243.95C1246.73 545.076 1251.42 529.937 1257.11 516.06C1262.74 502.32 1269.36 489.802 1276.13 478.729C1282.9 467.658 1289.8 458.045 1296.12 450.129C1302.54 442.078 1308.28 435.838 1312.69 431.464C1314.93 429.239 1316.77 427.549 1318.22 426.346C1318.96 425.725 1319.58 425.282 1320.09 424.941C1320.42 424.628 1320.81 424.585 1321.06 424.49C1321.32 424.395 1321.47 424.269 1321.71 424.239L1321.72 424.24Z" clip-rule="evenodd"/><path fill="#34B07C" fill-rule="evenodd" d="M1433.13 443.237C1434.51 443.524 1434.03 446.983 1432.25 452.993C1430.47 459.003 1427.41 467.594 1423.84 478.201C1420.27 488.808 1416.21 501.406 1413.13 515.468C1410.55 527.22 1408.67 540.002 1408.38 553.406H1386.88C1387.48 539.175 1390.1 525.731 1393.73 513.542C1398.06 499.051 1403.72 486.287 1409.26 475.773C1414.81 465.259 1420.22 457.023 1424.45 451.445C1428.69 445.866 1431.75 442.951 1433.13 443.238V443.237Z" clip-rule="evenodd"/><path fill="#34B07C" fill-rule="evenodd" d="M1215.99 441.391C1214.38 441.391 1212.88 444.174 1211.41 449.109C1209.94 454.044 1208.48 461.15 1207.05 469.977C1205.62 478.803 1204.26 489.328 1203.19 501.076C1202.13 512.824 1201.4 525.802 1201.81 539.489C1201.83 539.943 1201.87 540.382 1201.89 540.835C1201.96 543.197 1202.1 545.553 1202.25 547.88H1225.51C1225.38 545.447 1225.23 543.002 1225.14 540.521C1225.13 540.079 1225.08 539.663 1225.07 539.219C1224.65 525.876 1224.68 513.072 1224.56 501.389C1224.45 489.707 1224.22 479.147 1223.54 470.245C1222.87 461.344 1221.8 454.136 1220.49 449.153C1219.18 444.171 1217.59 441.39 1215.99 441.39V441.391Z" clip-rule="evenodd"/><path fill="#34B07C" fill-rule="evenodd" d="M1055.91 450.957C1054.48 451.23 1054.59 454.216 1055.57 459.374C1056.54 464.531 1058.39 471.871 1060.31 480.938C1062.24 490.005 1064.18 500.822 1065.74 512.887C1067.11 523.518 1068.15 535.154 1068.93 547.349H1090.63C1089.73 534.702 1088.06 522.584 1085.61 511.548C1082.87 499.207 1079.24 488.193 1075.3 479.095C1071.37 469.999 1067.14 462.817 1063.64 457.992C1060.13 453.166 1057.33 450.684 1055.91 450.957V450.957Z" clip-rule="evenodd"/><path fill="#34B07C" fill-rule="evenodd" d="M75.4308 40.5974C61.8455 71.5393 53.9754 103.043 59.3695 136.141C65.4043 187.702 94.9536 236.79 121.718 285.435C161.345 366.94 176.507 453.066 170.107 536.962C178.438 536.603 195.308 542.917 190.14 531.977C192.892 431.663 165.828 329.32 104.069 235.304C67.3835 173.177 48.7388 103.94 76.3687 40.78C75.6074 40.4663 76.1747 40.9586 75.4326 40.6002L75.4308 40.5974Z" clip-rule="evenodd"/><path fill="#34B07C" fill-rule="evenodd" d="M169.17 39.4146C126.291 84.0902 91.025 135.439 92.4596 192.227C92.1309 209.407 94.5947 226.513 98.7329 243.538C101.126 243.933 103.53 244.302 105.943 244.62C93.167 196.713 94.2473 147.553 120.824 104.052C133.772 81.3102 151.112 60.1403 169.168 39.4135L169.17 39.4146Z" clip-rule="evenodd"/><path fill="#34B07C" d="M145.066 109.091C143.654 112.734 140.971 116.308 135.245 121.379C122.896 126.677 102.459 131.273 105.352 143.031C105.226 143.189 105.173 143.294 105.098 143.412C102.702 145.647 100.385 147.938 98.2057 150.296C99.0489 151.059 100.09 151.756 101.269 152.33C103.173 150.06 105.222 147.846 107.314 145.66C126.38 145.704 130.666 132.068 137.728 123.274C144.416 118.746 149.158 116.575 154.031 115.385C150.194 116.022 145.397 117.434 140.36 119.325C142.685 115.539 144.354 111.949 145.067 109.091L145.066 109.091Z"/><path fill="#34B07C" d="M160.234 216.638C160.316 217.003 160.368 217.334 160.444 217.687C141.072 231.955 139.17 262.395 139.684 289.075C138.111 291.131 140.464 297.82 142.717 301.764C141.454 304.89 140.243 308.046 139.176 311.255C140.812 312.353 142.683 313.28 144.669 313.952C145.683 310.288 146.852 306.697 148.089 303.101C150.893 302.373 151.967 299.74 155.596 295.81C165.152 270.757 174.533 240.199 160.826 217.663C160.934 217.493 161.027 217.341 161.138 217.168C160.99 217.272 160.852 217.38 160.706 217.486C160.536 217.21 160.411 216.912 160.234 216.638L160.234 216.638ZM160.513 218.159C163.048 230.356 161.37 236.933 153.718 258.215C153.537 235.199 154.072 228.486 160.513 218.159V218.159Z"/><path fill="#34B07C" d="M100.979 72.2755C100.181 76.3235 98.0576 80.4144 93.0652 86.3951C81.2776 93.2269 61.0156 100.046 66.1288 112.429C66.0267 112.61 65.9918 112.728 65.9357 112.862C63.8667 115.486 61.89 118.163 60.067 120.9C61.0754 121.644 62.2757 122.297 63.5964 122.807C65.1512 120.191 66.8655 117.62 68.6293 115.078C88.3151 113.374 90.2736 98.3134 95.9697 88.2057C102.053 82.7214 106.554 79.9512 111.37 78.2234C107.525 79.2602 102.829 81.2202 97.9718 83.7161C99.6871 79.4304 100.76 75.4157 100.978 72.2754L100.979 72.2755Z"/><path fill="#34B07C" d="M23.9833 40.2367C28.0989 43.4473 31.6326 47.4991 35.9013 54.5792C37.8862 66.3962 35.8303 83.3987 52.0107 88.5902C52.1631 88.7744 52.2779 88.8754 52.4 88.9998C54.3301 92.0316 56.3633 95.0427 58.5365 98.0002C59.8413 97.8821 61.1379 97.5861 62.3309 97.119C60.1648 94.4075 58.1254 91.6288 56.1399 88.8383C63.6032 75.6292 47.8094 64.303 39.2931 54.0161C36.0938 46.6012 35.1568 41.9797 35.5264 37.8679C34.8505 40.9212 34.7956 45.1169 35.259 49.7714C31.3152 45.8388 27.3669 42.4822 23.9834 40.2371L23.9833 40.2367Z"/><path fill="#34B07C" d="M25.6154 134.123C31.2038 137.028 36.4494 141.011 43.5425 148.336C49.7873 161.541 53.4278 181.477 72.8289 184.357C73.0582 184.54 73.2182 184.634 73.3941 184.754C76.5424 187.871 79.7956 190.944 83.1828 193.929C84.5617 193.544 85.8701 192.957 87.0069 192.192C83.7126 189.488 80.5328 186.684 77.4075 183.855C80.9623 167.247 59.8613 157.241 47.0384 147.042C40.9937 139.129 38.377 133.996 37.3573 129.198C37.6774 132.837 39.0679 137.671 41.1814 142.932C35.5305 139.164 30.0739 136.059 25.6161 134.124L25.6154 134.123Z"/><path fill="#34B07C" d="M153.688 146.856C151.188 150.057 147.485 152.917 140.382 156.563C126.827 158.998 105.699 159.016 104.809 170.953C104.638 171.077 104.554 171.168 104.445 171.265C101.437 172.899 98.4888 174.604 95.6509 176.404C96.2246 177.32 97.0095 178.214 97.966 179.021C100.51 177.247 103.177 175.558 105.876 173.906C124.232 178.056 132.627 165.861 142.181 158.921C150.041 156.006 155.289 154.939 160.356 154.844C156.46 154.63 151.396 154.955 145.952 155.689C149.376 152.547 152.107 149.453 153.687 146.856L153.688 146.856Z"/><path fill="#34B07C" d="M89.1252 45.9835C81.9541 50.55 74.8855 55.2566 67.9456 60.0484C68.2348 60.1783 68.5569 60.2992 68.8576 60.4222C75.5254 55.5481 82.3018 50.7495 89.1246 45.9836L89.1252 45.9835Z"/><path fill="#34B07C" fill-rule="evenodd" d="M169.171 39.4181C126.292 84.0936 91.0262 135.442 92.4608 192.231C92.1321 209.411 94.596 226.516 98.7342 243.542C101.127 243.936 103.532 244.306 105.944 244.623C93.1682 196.716 94.2485 147.556 120.825 104.055C133.773 81.3136 151.113 60.1437 169.169 39.417L169.171 39.4181Z" clip-rule="evenodd"/><path fill="#34B07C" d="M41.2901 208.903C41.4625 209.231 41.639 209.524 41.8096 209.841C70.499 216.725 93.3477 241.849 111.253 264.446C114.202 265.76 116.527 272.015 117.055 275.931C120.441 278.229 123.796 280.565 127.048 282.985C126.213 284.342 125.032 285.618 123.564 286.709C120.05 283.893 116.435 281.179 112.751 278.479C109.521 278.609 106.66 276.676 100.418 274.328C73.8382 255.766 43.631 232.525 41.4221 209.923C41.1995 209.808 41.0042 209.705 40.7768 209.589C40.9923 209.637 41.2012 209.692 41.416 209.742C41.3909 209.464 41.3068 209.18 41.2901 208.903L41.2901 208.903ZM42.0673 210.257C48.0148 221.197 54.1848 226.29 76.3114 242.18C60.6107 222.755 55.459 217.245 42.0673 210.257Z"/><path fill="#34B07C" fill-rule="evenodd" d="M1370.6 88.5857C1386.81 129.952 1397.1 169.461 1393.67 204.994C1390.8 261.384 1363.24 304.656 1338.57 348.641C1302.66 424.617 1292.56 516.586 1304.78 615.434C1296.08 611.379 1278.91 611.228 1283.57 600.964C1274.06 484.916 1295.5 379.587 1353.64 298.968C1387.77 243.89 1402.62 172.78 1369.64 88.3844C1370.41 88.3583 1369.85 88.6737 1370.6 88.5881L1370.6 88.5857Z" clip-rule="evenodd"/><path fill="#34B07C" fill-rule="evenodd" d="M1272.82 46.2277C1320.47 116.131 1360.63 190.343 1362.89 254.73C1364.37 274.542 1362.94 293.048 1359.75 310.73C1357.28 310.134 1354.8 309.506 1352.31 308.814C1362.45 259.556 1358.07 202.803 1327.49 141.375C1312.49 109.676 1293.01 77.8545 1272.82 46.2271L1272.82 46.2277Z" clip-rule="evenodd"/><path fill="#34B07C" d="M1302.55 136.541C1304.27 141.329 1307.3 146.594 1313.6 154.905C1326.83 166.372 1348.43 180.572 1346.2 192.769C1346.34 193.004 1346.4 193.148 1346.49 193.316C1349.13 196.923 1351.7 200.559 1354.13 204.212C1353.3 204.717 1352.26 205.06 1351.07 205.201C1348.93 201.77 1346.65 198.338 1344.33 194.921C1324.46 186.63 1319.09 169.145 1311.14 155.987C1303.87 147.879 1298.78 143.319 1293.63 139.825C1297.67 142.232 1302.76 145.948 1308.14 150.315C1305.46 144.964 1303.49 140.124 1302.55 136.54L1302.55 136.541Z"/><path fill="#34B07C" d="M1293.86 253.031C1293.8 253.413 1293.77 253.769 1293.72 254.14C1314.85 278.949 1318.85 314.63 1320.08 344.95C1321.86 347.992 1319.85 354.62 1317.76 358.149C1319.28 362.282 1320.76 366.424 1322.08 370.565C1320.45 371.106 1318.56 371.348 1316.53 371.249C1315.23 366.611 1313.78 361.988 1312.25 357.331C1309.28 355.271 1307.98 351.786 1303.94 345.699C1292.32 312.838 1280.52 273.751 1293.32 253.946C1293.19 253.704 1293.08 253.489 1292.96 253.243C1293.12 253.426 1293.27 253.611 1293.43 253.795C1293.59 253.553 1293.7 253.267 1293.86 253.031L1293.86 253.031ZM1293.67 254.65C1291.84 267.505 1294.02 275.769 1303.41 303.48C1302.07 277.21 1301.07 269.29 1293.67 254.65V254.65Z"/><path fill="#34B07C" d="M1346.07 113.677C1347.17 118.661 1349.66 124.273 1355.25 133.304C1367.99 146.281 1389.57 162.952 1385.06 174.892C1385.17 175.143 1385.22 175.294 1385.29 175.472C1387.62 179.381 1389.85 183.31 1391.94 187.241C1390.93 187.651 1389.73 187.875 1388.38 187.88C1386.59 184.205 1384.63 180.512 1382.63 176.83C1361.99 166.269 1358.95 148.17 1352.35 134.106C1345.64 125.167 1340.77 120.026 1335.63 115.942C1339.71 118.811 1344.74 123.109 1349.96 128.09C1347.89 122.434 1346.51 117.368 1346.07 113.677L1346.07 113.677Z"/><path fill="#34B07C" d="M1424.21 110.678C1420.13 112.553 1416.71 115.646 1412.73 121.884C1411.45 134.545 1414.72 154.909 1398.19 153.775C1398.05 153.919 1397.93 153.985 1397.82 154.074C1396 156.7 1394.08 159.258 1392.01 161.694C1390.65 160.988 1389.28 160.082 1388 159.025C1390.08 156.868 1392.02 154.579 1393.91 152.253C1385.25 133.866 1400.97 127.808 1409.16 119.756C1412 112.667 1412.68 107.785 1412.02 102.916C1412.92 106.708 1413.26 111.535 1413.09 116.661C1416.94 113.884 1420.83 111.768 1424.21 110.678L1424.21 110.678Z"/><path fill="#34B07C" d="M1428.72 217.449C1423.09 218.331 1417.89 220.597 1410.98 225.88C1405.34 238.265 1402.87 259.497 1382.84 254.308C1382.61 254.417 1382.45 254.455 1382.27 254.515C1379.2 256.706 1376.01 258.801 1372.68 260.737C1371.21 259.693 1369.81 258.448 1368.58 257.076C1371.83 255.421 1374.96 253.601 1378.03 251.73C1373.22 231.162 1394.56 228.937 1407.25 222.869C1413.02 216.454 1415.41 211.722 1416.16 206.676C1416.06 210.701 1414.93 215.627 1413.08 220.726C1418.72 218.884 1424.2 217.716 1428.72 217.451L1428.72 217.449Z"/><path fill="#34B07C" d="M1296.07 176.004C1298.89 180.762 1302.94 185.657 1310.58 192.937C1324.87 201.655 1346.89 210.917 1348.61 224.973C1348.8 225.19 1348.89 225.33 1349.01 225.489C1352.26 228.675 1355.44 231.917 1358.52 235.219C1357.98 236.016 1357.22 236.697 1356.28 237.202C1353.51 234.059 1350.62 230.959 1347.7 227.887C1328.84 224.609 1319.28 206.974 1308.86 194.85C1300.48 188.075 1294.93 184.558 1289.65 182.233C1293.69 183.691 1298.99 186.279 1304.72 189.501C1300.94 184.406 1297.89 179.669 1296.07 176.004L1296.07 176.004Z"/><path fill="#34B07C" d="M1356.69 88.762C1364.46 97.1268 1372.14 105.607 1379.69 114.129C1379.4 114.151 1379.07 114.148 1378.77 114.158C1371.49 105.661 1364.11 97.2031 1356.69 88.7624L1356.69 88.762Z"/><path fill="#34B07C" fill-rule="evenodd" d="M1272.82 46.2316C1320.47 116.135 1360.63 190.347 1362.89 254.734C1364.37 274.546 1362.94 293.052 1359.75 310.733C1357.28 310.138 1354.8 309.51 1352.31 308.818C1362.45 259.56 1358.07 202.807 1327.49 141.379C1312.49 109.679 1293.01 77.8584 1272.82 46.231L1272.82 46.2316Z" clip-rule="evenodd"/><path fill="#34B07C" d="M1417.33 296.205C1417.18 296.505 1417.01 296.763 1416.86 297.052C1387.41 292.383 1365.25 311.152 1348.09 329.19C1345.1 329.404 1343.09 335.548 1342.8 339.801C1339.42 340.95 1336.08 342.157 1332.85 343.505C1333.81 345.423 1335.13 347.4 1336.73 349.292C1340.2 347.606 1343.79 346.08 1347.45 344.6C1350.83 346.162 1353.68 345.201 1360.04 345.243C1386.51 335.618 1416.46 322.224 1417.26 297.314C1417.49 297.28 1417.69 297.248 1417.92 297.214C1417.69 297.175 1417.48 297.146 1417.26 297.11C1417.27 296.803 1417.34 296.515 1417.33 296.205L1417.33 296.205ZM1416.61 297.414C1411.14 307.338 1405.05 310.47 1383.03 318.983C1398.11 303.612 1403.12 299.557 1416.61 297.414Z"/></svg>