<svg xmlns="http://www.w3.org/2000/svg" width="42" height="74" fill="none" viewBox="0 0 42 74"><mask id="path-1-outside-1" width="42" height="74" x="0" y="0" fill="#000" maskUnits="userSpaceOnUse"><rect width="42" height="74" fill="#fff"/><path fill-rule="evenodd" d="M12.9972 1.07175C10.1525 1.3946 7.51442 2.64746 5.75518 4.51099C4.99323 5.31806 4.00447 6.78436 3.62481 7.67015V7.93922H3.92129C5.31845 7.13372 7.35004 6.86504 8.40401 7.3465C9.63338 7.90799 10.6325 9.56582 11.163 11.9242C11.7782 14.6591 11.8225 17.9124 11.281 20.5951C10.7714 23.1195 9.11689 27.0932 7.04004 30.7806C5.7763 33.0246 3.55501 37.4855 2.96873 38.9573C2.29403 40.6507 1.73293 42.5394 1.37295 44.329C0.96902 46.3375 0.874826 50.5908 1.18115 52.9974C1.90335 58.6712 4.37232 64.5607 8.10096 69.5044C8.98531 70.6768 10.8314 72.5642 11.0938 72.5642C11.3956 72.5642 11.1911 71.1955 10.5639 69.019C10.2006 67.758 9.726 65.9589 9.50914 65.0209C9.29242 64.0829 9.06284 63.1088 8.99908 62.8563C8.56327 61.1316 8.425 59.657 8.41463 56.6248C8.40296 53.1693 8.43379 52.8258 8.90646 51.1524C9.55335 48.862 10.4201 47.506 12.9976 44.7522C14.8361 42.7879 18.4001 38.7488 19.4225 37.4706C20.4915 36.1343 21.6404 34.4198 21.9718 33.6668C22.3812 32.7361 22.607 31.5426 22.7694 29.4504C23.0159 26.2759 23.1247 24.5697 23.183 24.5115C23.2141 24.4803 23.6864 24.8379 24.1756 25.2347C25.1247 26.0048 26.3662 26.9105 26.4728 26.9105C26.5083 26.9105 26.9482 27.1363 27.4502 27.4123C28.3481 27.9059 29.947 28.4727 31.224 28.7501C32.5467 29.0375 36.1617 30.2099 37.3473 30.7361C39.4995 31.6916 40.2166 32.3844 40.217 33.5093C40.2177 34.8098 38.6444 36.5717 35.8804 38.3659C33.9863 39.5956 32.3314 40.3674 30.0501 41.0847C28.7928 41.4801 27.7576 42.0453 27.1496 42.668C26.6887 43.1399 26.6392 43.2568 26.6398 43.873C26.6402 44.4354 26.7242 44.6848 27.1177 45.2903C27.3803 45.6947 27.7982 46.1508 28.0462 46.3042C28.6518 46.6785 29.8448 46.9766 30.2006 46.8428C30.3556 46.7845 30.5123 46.7667 30.5491 46.8035C30.5857 46.8402 30.4521 47.2305 30.2522 47.671L29.8887 48.4718L31.2814 49.1615C33.3928 50.2073 34.0514 50.8804 34.0514 51.9926C34.0514 52.3438 33.9119 52.5524 33.267 53.1661C32.0467 54.3273 30.8901 54.5775 29.4724 53.9869C29.2269 53.8845 29.008 53.8188 28.9859 53.8407C28.9106 53.9161 29.282 55.3128 29.4694 55.6583C29.914 56.4785 30.5606 57.013 31.3585 57.22L32.1357 57.4216L32.1202 58.0689C32.0682 60.2428 31.4449 62.0391 29.0711 66.8575C26.8785 71.308 26.8069 71.4771 26.9124 71.9572C27.0478 72.5734 27.3517 72.9578 27.7038 72.9578C27.876 72.9578 28.0167 72.8963 28.0167 72.8211C28.0167 72.6073 29.5292 71.9453 30.588 71.6956C31.5652 71.4653 31.5609 71.4649 32.7395 71.8601C32.8477 71.8965 32.7719 71.7755 32.5709 71.5916C32.1068 71.1667 30.9097 70.8094 30.3431 70.9267C30.1098 70.9751 29.3975 71.2207 28.7602 71.4725C28.1229 71.7242 27.5683 71.8971 27.5279 71.8569C27.3807 71.7095 28.0773 70.1023 29.7782 66.6657C31.828 62.5236 32.5921 60.4312 32.7217 58.604L32.8051 57.4283L33.3955 57.2769C34.2013 57.0703 35.0025 56.648 36.0435 55.8811C37.0311 55.1536 38.8176 53.3217 39.3775 52.4622C39.5814 52.1494 39.9275 51.8069 40.1467 51.701C40.6865 51.4402 41.0049 50.7563 40.9999 49.8686C40.9918 48.4355 40.0949 46.7607 38.7658 45.6973C38.3355 45.3529 38.0424 45.023 38.0799 44.9252C38.1159 44.8314 38.3709 44.687 38.6465 44.6045C39.0468 44.4846 39.1253 44.4116 39.0362 44.2425C38.9748 44.126 38.8954 43.9346 38.8597 43.8174C38.7485 43.4513 38.1699 43.6796 37.779 44.2437C37.4034 44.7858 37.2979 44.8011 36.544 44.4236C36.3636 44.3332 35.9031 44.1932 35.5208 44.1123C33.5175 43.6881 31.4284 44.3411 30.921 45.5496C30.7158 46.0383 30.6789 46.0615 30.1063 46.0628C28.3589 46.0666 26.8783 44.6439 27.347 43.4111C27.5526 42.8703 28.3575 42.4453 30.6822 41.6499C35.1719 40.1136 39.1924 37.3192 40.4075 34.8904C41.1628 33.3808 41.0356 32.6822 39.8038 31.5747C39.1081 30.9492 37.1014 29.8828 35.7569 29.4241L35.0353 29.1779L35.0618 27.9458C35.1329 24.6475 34.6961 20.5394 33.985 17.8201C32.5426 12.3037 28.9323 6.73293 24.9767 3.92025C23.2038 2.65966 20.7477 1.65606 18.5055 1.27627C16.9835 1.01848 14.3333 0.920093 12.9972 1.07175ZM32.5475 32.5464C32.0854 33.057 32.5875 33.7503 33.264 33.5357C33.6379 33.417 33.7451 32.8656 33.4563 32.5464C33.3283 32.405 33.1239 32.2893 33.0019 32.2893C32.8799 32.2893 32.6755 32.405 32.5475 32.5464Z" clip-rule="evenodd"/><path d="M33.264 33.5357C32.5875 33.7503 32.0854 33.057 32.5475 32.5464C32.6755 32.405 32.8799 32.2893 33.0019 32.2893C33.1239 32.2893 33.3283 32.405 33.4563 32.5464C33.7451 32.8656 33.6379 33.417 33.264 33.5357Z"/><path d="M33.264 33.5357C32.5875 33.7503 32.0854 33.057 32.5475 32.5464C32.6755 32.405 32.8799 32.2893 33.0019 32.2893C33.1239 32.2893 33.3283 32.405 33.4563 32.5464C33.7451 32.8656 33.6379 33.417 33.264 33.5357Z"/></mask><path fill="#3E281B" fill-rule="evenodd" d="M12.9972 1.07175C10.1525 1.3946 7.51442 2.64746 5.75518 4.51099C4.99323 5.31806 4.00447 6.78436 3.62481 7.67015V7.93922H3.92129C5.31845 7.13372 7.35004 6.86504 8.40401 7.3465C9.63338 7.90799 10.6325 9.56582 11.163 11.9242C11.7782 14.6591 11.8225 17.9124 11.281 20.5951C10.7714 23.1195 9.11689 27.0932 7.04004 30.7806C5.7763 33.0246 3.55501 37.4855 2.96873 38.9573C2.29403 40.6507 1.73293 42.5394 1.37295 44.329C0.96902 46.3375 0.874826 50.5908 1.18115 52.9974C1.90335 58.6712 4.37232 64.5607 8.10096 69.5044C8.98531 70.6768 10.8314 72.5642 11.0938 72.5642C11.3956 72.5642 11.1911 71.1955 10.5639 69.019C10.2006 67.758 9.726 65.9589 9.50914 65.0209C9.29242 64.0829 9.06284 63.1088 8.99908 62.8563C8.56327 61.1316 8.425 59.657 8.41463 56.6248C8.40296 53.1693 8.43379 52.8258 8.90646 51.1524C9.55335 48.862 10.4201 47.506 12.9976 44.7522C14.8361 42.7879 18.4001 38.7488 19.4225 37.4706C20.4915 36.1343 21.6404 34.4198 21.9718 33.6668C22.3812 32.7361 22.607 31.5426 22.7694 29.4504C23.0159 26.2759 23.1247 24.5697 23.183 24.5115C23.2141 24.4803 23.6864 24.8379 24.1756 25.2347C25.1247 26.0048 26.3662 26.9105 26.4728 26.9105C26.5083 26.9105 26.9482 27.1363 27.4502 27.4123C28.3481 27.9059 29.947 28.4727 31.224 28.7501C32.5467 29.0375 36.1617 30.2099 37.3473 30.7361C39.4995 31.6916 40.2166 32.3844 40.217 33.5093C40.2177 34.8098 38.6444 36.5717 35.8804 38.3659C33.9863 39.5956 32.3314 40.3674 30.0501 41.0847C28.7928 41.4801 27.7576 42.0453 27.1496 42.668C26.6887 43.1399 26.6392 43.2568 26.6398 43.873C26.6402 44.4354 26.7242 44.6848 27.1177 45.2903C27.3803 45.6947 27.7982 46.1508 28.0462 46.3042C28.6518 46.6785 29.8448 46.9766 30.2006 46.8428C30.3556 46.7845 30.5123 46.7667 30.5491 46.8035C30.5857 46.8402 30.4521 47.2305 30.2522 47.671L29.8887 48.4718L31.2814 49.1615C33.3928 50.2073 34.0514 50.8804 34.0514 51.9926C34.0514 52.3438 33.9119 52.5524 33.267 53.1661C32.0467 54.3273 30.8901 54.5775 29.4724 53.9869C29.2269 53.8845 29.008 53.8188 28.9859 53.8407C28.9106 53.9161 29.282 55.3128 29.4694 55.6583C29.914 56.4785 30.5606 57.013 31.3585 57.22L32.1357 57.4216L32.1202 58.0689C32.0682 60.2428 31.4449 62.0391 29.0711 66.8575C26.8785 71.308 26.8069 71.4771 26.9124 71.9572C27.0478 72.5734 27.3517 72.9578 27.7038 72.9578C27.876 72.9578 28.0167 72.8963 28.0167 72.8211C28.0167 72.6073 29.5292 71.9453 30.588 71.6956C31.5652 71.4653 31.5609 71.4649 32.7395 71.8601C32.8477 71.8965 32.7719 71.7755 32.5709 71.5916C32.1068 71.1667 30.9097 70.8094 30.3431 70.9267C30.1098 70.9751 29.3975 71.2207 28.7602 71.4725C28.1229 71.7242 27.5683 71.8971 27.5279 71.8569C27.3807 71.7095 28.0773 70.1023 29.7782 66.6657C31.828 62.5236 32.5921 60.4312 32.7217 58.604L32.8051 57.4283L33.3955 57.2769C34.2013 57.0703 35.0025 56.648 36.0435 55.8811C37.0311 55.1536 38.8176 53.3217 39.3775 52.4622C39.5814 52.1494 39.9275 51.8069 40.1467 51.701C40.6865 51.4402 41.0049 50.7563 40.9999 49.8686C40.9918 48.4355 40.0949 46.7607 38.7658 45.6973C38.3355 45.3529 38.0424 45.023 38.0799 44.9252C38.1159 44.8314 38.3709 44.687 38.6465 44.6045C39.0468 44.4846 39.1253 44.4116 39.0362 44.2425C38.9748 44.126 38.8954 43.9346 38.8597 43.8174C38.7485 43.4513 38.1699 43.6796 37.779 44.2437C37.4034 44.7858 37.2979 44.8011 36.544 44.4236C36.3636 44.3332 35.9031 44.1932 35.5208 44.1123C33.5175 43.6881 31.4284 44.3411 30.921 45.5496C30.7158 46.0383 30.6789 46.0615 30.1063 46.0628C28.3589 46.0666 26.8783 44.6439 27.347 43.4111C27.5526 42.8703 28.3575 42.4453 30.6822 41.6499C35.1719 40.1136 39.1924 37.3192 40.4075 34.8904C41.1628 33.3808 41.0356 32.6822 39.8038 31.5747C39.1081 30.9492 37.1014 29.8828 35.7569 29.4241L35.0353 29.1779L35.0618 27.9458C35.1329 24.6475 34.6961 20.5394 33.985 17.8201C32.5426 12.3037 28.9323 6.73293 24.9767 3.92025C23.2038 2.65966 20.7477 1.65606 18.5055 1.27627C16.9835 1.01848 14.3333 0.920093 12.9972 1.07175ZM32.5475 32.5464C32.0854 33.057 32.5875 33.7503 33.264 33.5357C33.6379 33.417 33.7451 32.8656 33.4563 32.5464C33.3283 32.405 33.1239 32.2893 33.0019 32.2893C32.8799 32.2893 32.6755 32.405 32.5475 32.5464Z" clip-rule="evenodd"/><path fill="#3E281B" d="M33.264 33.5357C32.5875 33.7503 32.0854 33.057 32.5475 32.5464C32.6755 32.405 32.8799 32.2893 33.0019 32.2893C33.1239 32.2893 33.3283 32.405 33.4563 32.5464C33.7451 32.8656 33.6379 33.417 33.264 33.5357Z"/><path fill="#3E281B" d="M33.264 33.5357C32.5875 33.7503 32.0854 33.057 32.5475 32.5464C32.6755 32.405 32.8799 32.2893 33.0019 32.2893C33.1239 32.2893 33.3283 32.405 33.4563 32.5464C33.7451 32.8656 33.6379 33.417 33.264 33.5357Z"/><path fill="#3E281B" d="M32.5475 32.5464L32.3043 32.3263L32.3043 32.3263L32.5475 32.5464ZM33.264 33.5357L33.3632 33.8483L33.3633 33.8483L33.264 33.5357ZM33.4563 32.5464L33.6995 32.3264L33.6995 32.3263L33.4563 32.5464ZM32.3043 32.3263C31.9695 32.6963 31.9697 33.1693 32.2131 33.5054C32.452 33.8352 32.896 33.9965 33.3632 33.8483L33.1648 33.2231C32.9555 33.2895 32.8102 33.2115 32.7444 33.1206C32.6831 33.0361 32.6634 32.9071 32.7906 32.7665L32.3043 32.3263ZM33.3633 33.8483C33.6912 33.7442 33.8761 33.459 33.9306 33.1788C33.9853 32.8975 33.9214 32.5716 33.6995 32.3264L33.2131 32.7664C33.28 32.8404 33.3069 32.9498 33.2867 33.0536C33.2663 33.1587 33.2107 33.2085 33.1647 33.2231L33.3633 33.8483ZM33.6995 32.3263C33.6094 32.2269 33.4979 32.1414 33.3884 32.0794C33.2884 32.0228 33.1472 31.9613 33.0019 31.9613V32.6173C32.9844 32.6173 32.9827 32.6139 33.0006 32.62C33.0161 32.6253 33.0384 32.635 33.0653 32.6503C33.1205 32.6815 33.1752 32.7245 33.2132 32.7665L33.6995 32.3263ZM33.0019 31.9613C32.8565 31.9613 32.7154 32.0228 32.6154 32.0794C32.5059 32.1414 32.3943 32.2269 32.3043 32.3263L32.7906 32.7665C32.8286 32.7245 32.8833 32.6815 32.9385 32.6503C32.9653 32.635 32.9876 32.6253 33.0032 32.62C33.0211 32.6139 33.0194 32.6173 33.0019 32.6173V31.9613ZM12.9972 1.07175L13.0712 1.72351L13.0712 1.72351L12.9972 1.07175ZM5.75518 4.51099L6.23214 4.96129L6.23215 4.96127L5.75518 4.51099ZM3.62481 7.67015L3.02191 7.41174L2.96886 7.5355V7.67015H3.62481ZM3.62481 7.93922H2.96886V8.59516H3.62481V7.93922ZM3.92129 7.93922V8.59516H4.09683L4.24891 8.50748L3.92129 7.93922ZM8.40401 7.3465L8.13146 7.94314L8.1315 7.94316L8.40401 7.3465ZM11.163 11.9242L11.803 11.7803L11.803 11.7802L11.163 11.9242ZM11.281 20.5951L10.638 20.4653L10.638 20.4653L11.281 20.5951ZM7.04004 30.7806L6.46851 30.4587L6.4685 30.4587L7.04004 30.7806ZM2.96873 38.9573L3.57809 39.2001L3.57811 39.2001L2.96873 38.9573ZM1.37295 44.329L0.729889 44.1996L0.729883 44.1997L1.37295 44.329ZM1.18115 52.9974L0.530458 53.0802L0.530458 53.0802L1.18115 52.9974ZM8.10096 69.5044L7.57727 69.8994L7.57729 69.8994L8.10096 69.5044ZM10.5639 69.019L9.93359 69.2006L9.9336 69.2006L10.5639 69.019ZM9.50914 65.0209L8.87004 65.1685L8.87006 65.1686L9.50914 65.0209ZM8.99908 62.8563L9.63507 62.6957L9.63504 62.6955L8.99908 62.8563ZM8.41463 56.6248L7.75869 56.627L7.75869 56.627L8.41463 56.6248ZM8.90646 51.1524L9.53771 51.3307L9.53771 51.3307L8.90646 51.1524ZM12.9976 44.7522L13.4765 45.2004L13.4765 45.2004L12.9976 44.7522ZM19.4225 37.4706L19.9348 37.8803L19.9348 37.8803L19.4225 37.4706ZM21.9718 33.6668L22.5722 33.931L22.5722 33.9309L21.9718 33.6668ZM22.7694 29.4504L22.1155 29.3996L22.1155 29.3996L22.7694 29.4504ZM23.183 24.5115L23.6468 24.9753L23.6478 24.9743L23.183 24.5115ZM24.1756 25.2347L24.589 24.7254L24.5889 24.7253L24.1756 25.2347ZM27.4502 27.4123L27.1342 27.9871L27.1343 27.9872L27.4502 27.4123ZM31.224 28.7501L31.3633 28.1091L31.3632 28.1091L31.224 28.7501ZM37.3473 30.7361L37.6134 30.1366L37.6134 30.1366L37.3473 30.7361ZM40.217 33.5093L39.5611 33.5096L39.5611 33.5097L40.217 33.5093ZM35.8804 38.3659L35.5233 37.8158L35.5233 37.8158L35.8804 38.3659ZM30.0501 41.0847L29.8534 40.459L29.8534 40.459L30.0501 41.0847ZM27.1496 42.668L27.6188 43.1263L27.6189 43.1263L27.1496 42.668ZM26.6398 43.873L27.2957 43.8725L27.2957 43.8724L26.6398 43.873ZM27.1177 45.2903L27.6678 44.933L27.6677 44.933L27.1177 45.2903ZM28.0462 46.3042L27.7013 46.8621L27.7014 46.8621L28.0462 46.3042ZM30.2006 46.8428L30.4315 47.4568L30.4319 47.4567L30.2006 46.8428ZM30.5491 46.8035L31.0137 46.3405L31.0129 46.3397L30.5491 46.8035ZM30.2522 47.671L30.8495 47.9422L30.8495 47.9421L30.2522 47.671ZM29.8887 48.4718L29.2914 48.2007L29.0292 48.7782L29.5976 49.0596L29.8887 48.4718ZM31.2814 49.1615L31.5725 48.5737L31.5724 48.5736L31.2814 49.1615ZM33.267 53.1661L33.7192 53.6413L33.7192 53.6413L33.267 53.1661ZM29.4724 53.9869L29.22 54.5923L29.2201 54.5924L29.4724 53.9869ZM28.9859 53.8407L28.5235 53.3755L28.5217 53.3773L28.9859 53.8407ZM29.4694 55.6583L30.046 55.3457L30.046 55.3457L29.4694 55.6583ZM31.3585 57.22L31.1938 57.8549L31.1938 57.8549L31.3585 57.22ZM32.1357 57.4216L32.7914 57.4373L32.8038 56.9173L32.3004 56.7867L32.1357 57.4216ZM32.1202 58.0689L31.4644 58.0532L31.4644 58.0532L32.1202 58.0689ZM29.0711 66.8575L28.4827 66.5676L28.4827 66.5676L29.0711 66.8575ZM26.9124 71.9572L26.2717 72.0979L26.2717 72.098L26.9124 71.9572ZM30.588 71.6956L30.4375 71.0572L30.4375 71.0572L30.588 71.6956ZM32.7395 71.8601L32.9483 71.2383L32.9481 71.2382L32.7395 71.8601ZM32.5709 71.5916L32.128 72.0754L32.1281 72.0755L32.5709 71.5916ZM30.3431 70.9267L30.2101 70.2844L30.2098 70.2845L30.3431 70.9267ZM27.5279 71.8569L27.0639 72.3205L27.0648 72.3214L27.5279 71.8569ZM29.7782 66.6657L30.3661 66.9567L30.3661 66.9566L29.7782 66.6657ZM32.7217 58.604L32.0674 58.5576L32.0674 58.5576L32.7217 58.604ZM32.8051 57.4283L32.6422 56.7929L32.1843 56.9104L32.1508 57.3819L32.8051 57.4283ZM33.3955 57.2769L33.2325 56.6415L33.2325 56.6415L33.3955 57.2769ZM36.0435 55.8811L35.6545 55.3529L35.6544 55.353L36.0435 55.8811ZM39.3775 52.4622L38.828 52.104L38.8279 52.1041L39.3775 52.4622ZM40.1467 51.701L40.4319 52.2917L40.432 52.2916L40.1467 51.701ZM40.9999 49.8686L41.6559 49.8649L41.6559 49.8648L40.9999 49.8686ZM38.7658 45.6973L38.3559 46.2094L38.356 46.2095L38.7658 45.6973ZM38.0799 44.9252L38.6923 45.1603L38.6925 45.16L38.0799 44.9252ZM38.6465 44.6045L38.8347 45.2329L38.8348 45.2328L38.6465 44.6045ZM39.0362 44.2425L39.6165 43.9368L39.6165 43.9367L39.0362 44.2425ZM38.8597 43.8174L38.2321 44.0081L38.2322 44.0083L38.8597 43.8174ZM37.779 44.2437L37.2399 43.8701L37.2398 43.8701L37.779 44.2437ZM36.544 44.4236L36.2501 45.01L36.2503 45.0101L36.544 44.4236ZM35.5208 44.1123L35.6567 43.4706L35.6567 43.4706L35.5208 44.1123ZM30.921 45.5496L30.3162 45.2956L30.3162 45.2956L30.921 45.5496ZM30.1063 46.0628L30.1077 46.7187L30.1078 46.7187L30.1063 46.0628ZM27.347 43.4111L27.9601 43.6442L27.9601 43.6442L27.347 43.4111ZM30.6822 41.6499L30.8946 42.2705L30.8946 42.2705L30.6822 41.6499ZM40.4075 34.8904L39.8209 34.5969L39.8209 34.5969L40.4075 34.8904ZM39.8038 31.5747L39.3652 32.0625L39.3652 32.0625L39.8038 31.5747ZM35.7569 29.4241L35.545 30.0449L35.5451 30.0449L35.7569 29.4241ZM35.0353 29.1779L34.3795 29.1638L34.3692 29.6436L34.8235 29.7987L35.0353 29.1779ZM35.0618 27.9458L34.406 27.9316L34.406 27.9317L35.0618 27.9458ZM33.985 17.8201L33.3504 17.986L33.3504 17.986L33.985 17.8201ZM24.9767 3.92025L25.3568 3.38567L25.3568 3.38567L24.9767 3.92025ZM18.5055 1.27627L18.6151 0.629539L18.6151 0.629537L18.5055 1.27627ZM12.9232 0.419988C9.94384 0.758129 7.15634 2.07122 5.2782 4.06071L6.23215 4.96127C7.87249 3.22369 10.3611 2.03108 13.0712 1.72351L12.9232 0.419988ZM5.27821 4.0607C4.47124 4.91547 3.43617 6.44523 3.02191 7.41174L4.2277 7.92856C4.57277 7.12349 5.51523 5.72066 6.23214 4.96129L5.27821 4.0607ZM2.96886 7.67015V7.93922H4.28075V7.67015H2.96886ZM3.62481 8.59516H3.92129V7.28327H3.62481V8.59516ZM4.24891 8.50748C4.86311 8.15338 5.63597 7.90856 6.37733 7.81053C7.13542 7.71029 7.7647 7.7756 8.13146 7.94314L8.67656 6.74987C7.98935 6.43594 7.07585 6.39486 6.20536 6.50997C5.31815 6.62728 4.37663 6.91955 3.59367 7.37095L4.24891 8.50748ZM8.1315 7.94316C8.58744 8.1514 9.05652 8.59118 9.48379 9.30011C9.90852 10.0048 10.2691 10.9389 10.5231 12.0682L11.803 11.7802C11.5265 10.5511 11.1222 9.4771 10.6074 8.62292C10.0951 7.77298 9.44995 7.10309 8.67652 6.74985L8.1315 7.94316ZM10.5231 12.0681C11.1185 14.7153 11.1608 17.8753 10.638 20.4653L11.924 20.7249C12.4842 17.9495 12.4379 14.6029 11.803 11.7803L10.5231 12.0681ZM10.638 20.4653C10.148 22.893 8.53038 26.7979 6.46851 30.4587L7.61157 31.1025C9.7034 27.3885 11.3949 23.346 11.924 20.7249L10.638 20.4653ZM6.4685 30.4587C5.1981 32.7146 2.96104 37.2041 2.35935 38.7146L3.57811 39.2001C4.14899 37.7669 6.3545 33.3346 7.61158 31.1025L6.4685 30.4587ZM2.35937 38.7146C1.67002 40.4447 1.09765 42.3714 0.729889 44.1996L2.01601 44.4584C2.36821 42.7075 2.91803 40.8567 3.57809 39.2001L2.35937 38.7146ZM0.729883 44.1997C0.309598 46.2895 0.216748 50.6156 0.530458 53.0802L1.83185 52.9146C1.5329 50.566 1.62844 46.3855 2.01602 44.4583L0.729883 44.1997ZM0.530458 53.0802C1.26826 58.8766 3.78569 64.8722 7.57727 69.8994L8.62466 69.1094C4.95894 64.2491 2.53843 58.4658 1.83185 52.9146L0.530458 53.0802ZM7.57729 69.8994C8.04232 70.5159 8.74569 71.3028 9.36168 71.9326C9.67039 72.2483 9.96672 72.5342 10.2086 72.7452C10.328 72.8495 10.4455 72.9454 10.551 73.0189C10.603 73.0552 10.6654 73.0954 10.7327 73.1291C10.7782 73.152 10.9163 73.2202 11.0938 73.2202V71.9083C11.1776 71.9083 11.2392 71.9259 11.2654 71.9343C11.2953 71.9439 11.3146 71.9534 11.3206 71.9563C11.3316 71.9619 11.3266 71.9604 11.3012 71.9427C11.2521 71.9085 11.1754 71.8478 11.0711 71.7567C10.8653 71.5772 10.5957 71.3181 10.2995 71.0153C9.7058 70.4083 9.04395 69.6653 8.62464 69.1094L7.57729 69.8994ZM11.0938 73.2202C11.4448 73.2202 11.6645 72.9942 11.7631 72.8082C11.8469 72.6499 11.8709 72.4834 11.8802 72.3706C11.9001 72.1306 11.8738 71.8308 11.826 71.5109C11.7279 70.8548 11.511 69.9366 11.1942 68.8374L9.9336 69.2006C10.244 70.2779 10.443 71.1324 10.5285 71.7048C10.5725 71.9991 10.5799 72.1774 10.5728 72.2621C10.5687 72.3117 10.564 72.2691 10.6037 72.1942C10.6581 72.0915 10.8182 71.9083 11.0938 71.9083V73.2202ZM11.1942 68.8374C10.8331 67.5839 10.3617 65.7965 10.1482 64.8731L8.87006 65.1686C9.09028 66.1212 9.56817 67.9321 9.93359 69.2006L11.1942 68.8374ZM10.1483 64.8732C9.93199 63.9372 9.70079 62.956 9.63507 62.6957L8.36309 63.0168C8.42489 63.2616 8.65286 64.2286 8.87004 65.1685L10.1483 64.8732ZM9.63504 62.6955C9.21832 61.0465 9.08086 59.6331 9.07057 56.6225L7.75869 56.627C7.76913 59.6808 7.90823 61.2168 8.36313 63.017L9.63504 62.6955ZM9.07057 56.6226C9.0647 54.8843 9.07023 53.9689 9.13223 53.279C9.19197 52.6142 9.30426 52.1572 9.53771 51.3307L8.27521 50.9741C8.03599 51.821 7.89652 52.3725 7.82561 53.1616C7.75694 53.9256 7.75289 54.9098 7.75869 56.627L9.07057 56.6226ZM9.53771 51.3307C10.1442 49.1833 10.933 47.9179 13.4765 45.2004L12.5187 44.304C9.90721 47.0941 8.96251 48.5406 8.27521 50.9741L9.53771 51.3307ZM13.4765 45.2004C15.3202 43.2305 18.8971 39.1774 19.9348 37.8803L18.9103 37.0608C17.903 38.3201 14.3519 42.3453 12.5187 44.304L13.4765 45.2004ZM19.9348 37.8803C21.0096 36.5366 22.2044 34.7666 22.5722 33.931L21.3714 33.4026C21.0764 34.073 19.9733 35.732 18.9103 37.0608L19.9348 37.8803ZM22.5722 33.9309C23.0288 32.8931 23.26 31.6057 23.4234 29.5011L22.1155 29.3996C21.954 31.4794 21.7337 32.5791 21.3714 33.4026L22.5722 33.9309ZM23.4234 29.5011C23.5474 27.9048 23.6351 26.6987 23.7007 25.8637C23.7334 25.4484 23.7596 25.1373 23.781 24.928C23.7918 24.8219 23.8005 24.7517 23.8068 24.7104C23.8103 24.6882 23.8111 24.6873 23.8083 24.6986C23.8072 24.7033 23.8017 24.7255 23.7902 24.7557C23.7875 24.7627 23.7496 24.8725 23.6468 24.9753L22.7191 24.0477C22.6127 24.1541 22.571 24.2708 22.5646 24.2878C22.5492 24.3281 22.5397 24.3636 22.5345 24.3848C22.5236 24.429 22.5159 24.4739 22.5103 24.51C22.4987 24.5856 22.4873 24.683 22.4759 24.7947C22.4528 25.0209 22.4255 25.3457 22.3929 25.7609C22.3279 26.5872 22.238 27.8214 22.1155 29.3996L23.4234 29.5011ZM23.6478 24.9743C23.5143 25.1083 23.361 25.1491 23.2683 25.1606C23.1781 25.1718 23.1068 25.1612 23.0718 25.1546C23.0022 25.1414 22.9544 25.1196 22.9458 25.1157C22.9204 25.1043 22.9126 25.0979 22.9337 25.1111C22.9687 25.1331 23.0302 25.1756 23.1181 25.2404C23.2899 25.3672 23.5216 25.5488 23.7624 25.7442L24.5889 24.7253C24.3405 24.5238 24.0914 24.3283 23.8969 24.1848C23.8017 24.1145 23.7087 24.0486 23.6311 23.9999C23.5959 23.9778 23.5422 23.9455 23.4832 23.919C23.4577 23.9075 23.3961 23.8808 23.3159 23.8656C23.2756 23.858 23.1999 23.8471 23.106 23.8588C23.0097 23.8708 22.8535 23.9127 22.7182 24.0487L23.6478 24.9743ZM23.7623 25.7441C24.2462 26.1367 24.8028 26.5625 25.2536 26.8913C25.4783 27.0553 25.682 27.199 25.8399 27.3037C25.9176 27.3552 25.9925 27.4028 26.0571 27.4397C26.0884 27.4576 26.1282 27.4793 26.1709 27.4985C26.1921 27.508 26.2238 27.5214 26.262 27.5334C26.2905 27.5424 26.37 27.5665 26.4728 27.5665V26.2546C26.5689 26.2546 26.6395 26.2769 26.657 26.2824C26.6842 26.291 26.7027 26.2992 26.7088 26.3019C26.7211 26.3074 26.7224 26.3089 26.7077 26.3005C26.6803 26.2849 26.6333 26.2557 26.5648 26.2103C26.4303 26.1211 26.2443 25.9902 26.0267 25.8315C25.5928 25.5149 25.0541 25.1028 24.589 24.7254L23.7623 25.7441ZM26.4728 27.5665C26.4004 27.5665 26.3456 27.554 26.33 27.5504C26.3069 27.5451 26.2896 27.5397 26.2814 27.537C26.2721 27.534 26.2653 27.5315 26.262 27.5302C26.2585 27.5289 26.2564 27.528 26.256 27.5279C26.2556 27.5277 26.2583 27.5288 26.2649 27.5318C26.2712 27.5346 26.2796 27.5385 26.2903 27.5435C26.3346 27.5644 26.4011 27.5974 26.487 27.6415C26.6574 27.7289 26.8872 27.8513 27.1342 27.9871L27.7663 26.8375C27.5112 26.6973 27.2701 26.5688 27.0861 26.4744C26.9949 26.4275 26.9133 26.3868 26.8494 26.3567C26.8185 26.3422 26.7846 26.3267 26.7527 26.3137C26.7375 26.3075 26.714 26.2981 26.6868 26.2893C26.6732 26.2849 26.6514 26.2782 26.6246 26.272C26.6051 26.2675 26.5473 26.2546 26.4728 26.2546V27.5665ZM27.1343 27.9872C28.1003 28.5182 29.7621 29.1038 31.0848 29.3911L31.3632 28.1091C30.132 27.8417 28.5959 27.2936 27.7662 26.8375L27.1343 27.9872ZM31.0847 29.3911C32.3657 29.6694 35.9381 30.8284 37.0812 31.3357L37.6134 30.1366C36.3853 29.5915 32.7276 28.4056 31.3633 28.1091L31.0847 29.3911ZM37.0811 31.3357C38.1469 31.8088 38.7731 32.1828 39.1333 32.5309C39.4534 32.8402 39.5609 33.1244 39.5611 33.5096L40.873 33.5091C40.8727 32.7694 40.6215 32.1446 40.0449 31.5875C39.5084 31.069 38.6999 30.6189 37.6134 30.1366L37.0811 31.3357ZM39.5611 33.5097C39.5613 33.9141 39.3017 34.5254 38.5962 35.3156C37.9092 36.085 36.8758 36.9377 35.5233 37.8158L36.2376 38.9161C37.649 37.9999 38.7843 37.0746 39.5747 36.1894C40.3467 35.3249 40.8734 34.405 40.873 33.509L39.5611 33.5097ZM35.5233 37.8158C33.6818 39.0112 32.0813 39.7584 29.8534 40.459L30.2469 41.7104C32.5815 40.9763 34.2909 40.1799 36.2376 38.9161L35.5233 37.8158ZM29.8534 40.459C28.5414 40.8716 27.393 41.4798 26.6802 42.2098L27.6189 43.1263C28.1223 42.6107 29.0442 42.0887 30.2469 41.7104L29.8534 40.459ZM26.6803 42.2097C26.4591 42.4361 26.2425 42.6654 26.1175 42.9608C25.9894 43.2637 25.9836 43.573 25.9838 43.8735L27.2957 43.8724C27.2954 43.5568 27.3141 43.4995 27.3257 43.472C27.3406 43.4369 27.3791 43.3718 27.6188 43.1263L26.6803 42.2097ZM25.9838 43.8734C25.984 44.1884 26.0073 44.4713 26.1098 44.7751C26.2077 45.0655 26.3655 45.3366 26.5676 45.6477L27.6677 44.933C27.4764 44.6386 27.3954 44.4821 27.3529 44.3559C27.3148 44.243 27.2959 44.1199 27.2957 43.8725L25.9838 43.8734ZM26.5676 45.6477C26.7215 45.8845 26.9147 46.1281 27.1037 46.3344C27.2828 46.5299 27.4984 46.7367 27.7013 46.8621L28.3912 45.7462C28.346 45.7183 28.2287 45.6203 28.0711 45.4483C27.9235 45.2872 27.7766 45.1005 27.6678 44.933L26.5676 45.6477ZM27.7014 46.8621C28.0818 47.0973 28.6018 47.2863 29.058 47.4004C29.2908 47.4586 29.5273 47.5024 29.7419 47.5212C29.9288 47.5376 30.1963 47.5453 30.4315 47.4568L29.9697 46.2289C30.0271 46.2073 30.012 46.2279 29.8562 46.2143C29.7281 46.2031 29.5619 46.1741 29.3762 46.1277C28.9955 46.0325 28.6162 45.8853 28.3911 45.7462L27.7014 46.8621ZM30.4319 47.4567C30.4472 47.4509 30.4621 47.4463 30.4749 47.4431C30.4882 47.4398 30.4945 47.4391 30.4928 47.4393C30.4917 47.4394 30.4861 47.44 30.4765 47.4402C30.4675 47.4404 30.4496 47.4403 30.4251 47.4375C30.4024 47.4348 30.3601 47.4282 30.3078 47.4094C30.258 47.3915 30.17 47.3521 30.0852 47.2673L31.0129 46.3397C30.8409 46.1677 30.6347 46.1411 30.5767 46.1344C30.4878 46.124 30.4063 46.1288 30.3455 46.1357C30.2206 46.1498 30.0896 46.1837 29.9693 46.229L30.4319 47.4567ZM30.0844 47.2665C29.9551 47.1367 29.9207 46.9934 29.9104 46.9414C29.898 46.8785 29.8988 46.8297 29.8995 46.8097C29.901 46.7684 29.907 46.7451 29.905 46.7542C29.9024 46.7663 29.8923 46.8045 29.8687 46.8735C29.8234 47.0059 29.7485 47.1935 29.6549 47.3999L30.8495 47.9421C30.9557 47.708 31.0476 47.4802 31.1099 47.2982C31.1401 47.2099 31.169 47.1162 31.1874 47.031C31.196 46.9914 31.208 46.9281 31.2105 46.8567C31.2118 46.8217 31.2119 46.7603 31.1975 46.6874C31.1853 46.6255 31.1475 46.4748 31.0137 46.3405L30.0844 47.2665ZM29.6549 47.3999L29.2914 48.2007L30.4859 48.7429L30.8495 47.9422L29.6549 47.3999ZM29.5976 49.0596L30.9903 49.7493L31.5724 48.5736L30.1797 47.884L29.5976 49.0596ZM30.9902 49.7493C32.0389 50.2687 32.644 50.658 32.9893 51.0109C33.2945 51.3228 33.3955 51.603 33.3955 51.9926H34.7073C34.7073 51.2701 34.479 50.6576 33.927 50.0934C33.4152 49.5703 32.6353 49.1001 31.5725 48.5737L30.9902 49.7493ZM33.3955 51.9926C33.3955 52.0353 33.3914 52.049 33.3904 52.0524C33.3893 52.0558 33.384 52.0742 33.3557 52.1164C33.2862 52.2205 33.1417 52.3799 32.8148 52.6909L33.7192 53.6413C34.0372 53.3387 34.285 53.0869 34.4464 52.8455C34.638 52.5589 34.7073 52.2907 34.7073 51.9926H33.3955ZM32.8149 52.6909C32.2605 53.2184 31.77 53.4917 31.3051 53.5923C30.8469 53.6914 30.3414 53.6383 29.7246 53.3813L29.2201 54.5924C30.0211 54.926 30.8028 55.0431 31.5824 54.8745C32.3553 54.7073 33.0532 54.275 33.7192 53.6413L32.8149 52.6909ZM29.7248 53.3814C29.5868 53.3239 29.449 53.2735 29.3341 53.239C29.2794 53.2225 29.2129 53.2045 29.1469 53.1933C29.1167 53.1881 29.0611 53.1798 28.9955 53.1806C28.9629 53.181 28.9058 53.1836 28.8377 53.2001C28.778 53.2146 28.6448 53.255 28.5235 53.3755L29.4484 54.3059C29.3299 54.4237 29.2009 54.462 29.1469 54.4751C29.0847 54.4902 29.0347 54.4921 29.0107 54.4924C28.9622 54.493 28.9293 54.487 28.9265 54.4865C28.9155 54.4846 28.9232 54.4854 28.9567 54.4954C29.0182 54.5139 29.1125 54.5475 29.22 54.5923L29.7248 53.3814ZM28.5217 53.3773C28.413 53.4862 28.3701 53.6039 28.3533 53.6583C28.3341 53.7207 28.327 53.7746 28.3239 53.8078C28.3176 53.8746 28.3204 53.9347 28.3232 53.9733C28.329 54.0552 28.3432 54.1449 28.3583 54.2271C28.3897 54.3968 28.4395 54.607 28.4953 54.8168C28.5515 55.0281 28.6168 55.2504 28.6817 55.4458C28.7419 55.6273 28.8156 55.8287 28.8927 55.9709L30.046 55.3457C30.0295 55.3152 29.9865 55.2124 29.9268 55.0325C29.8716 54.8665 29.8137 54.6701 29.7631 54.4796C29.712 54.2876 29.6713 54.1129 29.6484 53.9887C29.6364 53.924 29.6324 53.8895 29.6317 53.8792C29.6311 53.8718 29.6335 53.8939 29.6299 53.9317C29.6281 53.9505 29.6232 53.9922 29.607 54.0448C29.5932 54.0895 29.5542 54.1999 29.4502 54.3041L28.5217 53.3773ZM28.8927 55.9709C29.4114 56.9278 30.1958 57.596 31.1938 57.8549L31.5232 56.5851C30.9254 56.43 30.4165 56.0292 30.046 55.3457L28.8927 55.9709ZM31.1938 57.8549L31.9709 58.0565L32.3004 56.7867L31.5232 56.5851L31.1938 57.8549ZM31.4799 57.4059L31.4644 58.0532L32.7759 58.0846L32.7914 57.4373L31.4799 57.4059ZM31.4644 58.0532C31.4163 60.0663 30.859 61.7441 28.4827 66.5676L29.6595 67.1474C32.0309 62.334 32.7201 60.4194 32.7759 58.0846L31.4644 58.0532ZM28.4827 66.5676C27.3917 68.7821 26.8141 69.9597 26.5259 70.6405C26.3829 70.9784 26.2899 71.2416 26.2503 71.4731C26.2043 71.7419 26.236 71.9352 26.2717 72.0979L27.553 71.8165C27.536 71.7391 27.5371 71.7312 27.5434 71.6942C27.5561 71.6199 27.5982 71.4727 27.734 71.1519C28.0034 70.5155 28.5579 69.3834 29.6595 67.1474L28.4827 66.5676ZM26.2717 72.098C26.3536 72.4705 26.4959 72.8218 26.7124 73.0955C26.9304 73.3712 27.2665 73.6137 27.7038 73.6137V72.3018C27.789 72.3018 27.7971 72.3522 27.7413 72.2817C27.6839 72.2091 27.6066 72.0601 27.553 71.8164L26.2717 72.098ZM27.7038 73.6137C27.8592 73.6137 28.0305 73.5873 28.1875 73.5187C28.2649 73.4849 28.3686 73.4278 28.4623 73.3314C28.5587 73.2323 28.6727 73.059 28.6727 72.8211H27.3608C27.3608 72.6208 27.4571 72.4833 27.5217 72.4169C27.5837 72.3532 27.6415 72.3256 27.6622 72.3166C27.7057 72.2976 27.7206 72.3018 27.7038 72.3018V73.6137ZM28.6727 72.8211C28.6727 72.9947 28.6001 73.11 28.5762 73.145C28.5604 73.1683 28.5465 73.1844 28.5383 73.1933C28.5299 73.2024 28.5241 73.2078 28.5224 73.2093C28.5217 73.21 28.5452 73.1901 28.6097 73.151C28.7332 73.0761 28.926 72.9787 29.1683 72.8727C29.6517 72.6611 30.2564 72.4477 30.7386 72.3341L30.4375 71.0572C29.8608 71.1932 29.1798 71.4356 28.6423 71.6709C28.3741 71.7883 28.1227 71.9121 27.9294 72.0293C27.8356 72.0862 27.7327 72.1551 27.6452 72.2339C27.6018 72.2728 27.5435 72.3307 27.4917 72.4069C27.4452 72.4752 27.3608 72.6207 27.3608 72.8211H28.6727ZM30.7385 72.3341C31.261 72.2109 31.3933 72.1862 31.5383 72.1973C31.705 72.21 31.9045 72.2719 32.5309 72.482L32.9481 71.2382C32.3959 71.0531 32.0083 70.9175 31.6382 70.8892C31.2464 70.8593 30.8922 70.95 30.4375 71.0572L30.7385 72.3341ZM32.5307 72.482C32.5718 72.4958 32.6671 72.5252 32.7873 72.5223C32.9086 72.5194 33.2001 72.4716 33.3628 72.1737C33.4968 71.9284 33.4306 71.7005 33.4124 71.6426C33.3858 71.5583 33.3483 71.4941 33.3268 71.4598C33.2463 71.3315 33.1207 71.2055 33.0138 71.1077L32.1281 72.0755C32.2222 72.1616 32.235 72.1881 32.2156 72.1571C32.2093 72.1471 32.1822 72.1038 32.1611 72.0367C32.1482 71.9958 32.0824 71.7812 32.2114 71.545C32.3691 71.2562 32.6504 71.2133 32.7559 71.2108C32.8603 71.2083 32.9343 71.2336 32.9483 71.2383L32.5307 72.482ZM33.0139 71.1078C32.6744 70.797 32.1482 70.5661 31.683 70.4273C31.2254 70.2907 30.6562 70.1921 30.2101 70.2844L30.476 71.5691C30.5966 71.5441 30.9092 71.5654 31.3079 71.6844C31.6989 71.8011 32.0033 71.9613 32.128 72.0754L33.0139 71.1078ZM30.2098 70.2845C29.9127 70.3461 29.1493 70.6135 28.5192 70.8624L29.0012 72.0825C29.6457 71.8279 30.307 71.6041 30.4764 71.569L30.2098 70.2845ZM28.5192 70.8624C28.2113 70.984 27.929 71.0843 27.7249 71.148C27.6206 71.1805 27.5495 71.1994 27.5105 71.2078C27.4881 71.2126 27.4962 71.2095 27.5223 71.2078C27.5336 71.207 27.5748 71.2044 27.6307 71.2121C27.6596 71.2161 27.7073 71.2247 27.7638 71.2459C27.8187 71.2665 27.9067 71.3083 27.991 71.3923L27.0648 72.3214C27.2244 72.4805 27.4102 72.506 27.4521 72.5118C27.5208 72.5212 27.5787 72.5188 27.6104 72.5167C27.677 72.5122 27.74 72.5003 27.7852 72.4906C27.8815 72.47 27.9965 72.4375 28.1155 72.4004C28.3581 72.3247 28.6717 72.2127 29.0012 72.0825L28.5192 70.8624ZM27.9919 71.3932C28.1312 71.5326 28.1557 71.6871 28.1612 71.7313C28.1649 71.7615 28.1649 71.7841 28.1646 71.7958C28.1642 71.8081 28.1633 71.8152 28.1632 71.8157C28.1632 71.8157 28.1649 71.8034 28.172 71.7749C28.1787 71.7475 28.1889 71.7112 28.2036 71.6646C28.2644 71.4726 28.3799 71.1753 28.5619 70.7556C28.9232 69.922 29.5164 68.6735 30.3661 66.9567L29.1903 66.3748C28.3391 68.0945 27.7336 69.368 27.3582 70.2339C27.1718 70.664 27.0344 71.011 26.9528 71.2691C26.9131 71.3946 26.8776 71.5266 26.8619 71.6492C26.8542 71.7095 26.8473 71.7963 26.8593 71.8928C26.8699 71.9784 26.9062 72.1627 27.0639 72.3205L27.9919 71.3932ZM30.3661 66.9566C32.413 62.8205 33.2361 60.6218 33.376 58.6504L32.0674 58.5576C31.948 60.2406 31.2431 62.2267 29.1903 66.3748L30.3661 66.9566ZM33.376 58.6505L33.4594 57.4748L32.1508 57.3819L32.0674 58.5576L33.376 58.6505ZM32.968 58.0637L33.5584 57.9123L33.2325 56.6415L32.6422 56.7929L32.968 58.0637ZM33.5584 57.9123C34.4782 57.6765 35.3573 57.2014 36.4326 56.4092L35.6544 55.353C34.6478 56.0946 33.9245 56.4641 33.2325 56.6415L33.5584 57.9123ZM36.4325 56.4092C36.9691 56.014 37.6917 55.3444 38.3405 54.6791C38.9846 54.0186 39.6099 53.3073 39.9272 52.8202L38.8279 52.1041C38.5853 52.4766 38.0373 53.111 37.4013 53.7632C36.7699 54.4106 36.1055 55.0207 35.6545 55.3529L36.4325 56.4092ZM39.927 52.8204C39.9995 52.7092 40.1058 52.581 40.2178 52.4702C40.2727 52.4159 40.3236 52.371 40.3664 52.3376C40.4124 52.3017 40.4344 52.2905 40.4319 52.2917L39.8614 51.1103C39.6539 51.2106 39.4513 51.383 39.295 51.5378C39.1281 51.7029 38.9594 51.9024 38.828 52.104L39.927 52.8204ZM40.432 52.2916C41.3019 51.8714 41.6615 50.8678 41.6559 49.8649L40.344 49.8723C40.3483 50.6448 40.0712 51.009 39.8613 51.1104L40.432 52.2916ZM41.6559 49.8648C41.6464 48.1959 40.627 46.3464 39.1756 45.1851L38.356 46.2095C39.5628 47.175 40.3372 48.675 40.344 49.8723L41.6559 49.8648ZM39.1757 45.1852C38.9799 45.0285 38.8286 44.8853 38.7378 44.7832C38.6901 44.7294 38.676 44.7059 38.6787 44.7105C38.6796 44.7121 38.6982 44.7433 38.7132 44.7977C38.7256 44.8422 38.7592 44.9861 38.6923 45.1603L37.4676 44.6902C37.3913 44.8889 37.4259 45.0644 37.4487 45.1471C37.4743 45.2395 37.513 45.3153 37.5428 45.3668C37.6033 45.4716 37.6824 45.5704 37.757 45.6544C37.911 45.8278 38.1214 46.0217 38.3559 46.2094L39.1757 45.1852ZM38.6925 45.16C38.6626 45.2379 38.624 45.2878 38.6064 45.3089C38.5866 45.3325 38.5713 45.3456 38.5674 45.3489C38.5603 45.3549 38.5677 45.3478 38.5965 45.3314C38.653 45.2995 38.7399 45.2613 38.8347 45.2329L38.4584 43.9761C38.2776 44.0302 38.0991 44.1055 37.9502 44.1898C37.8764 44.2316 37.796 44.2834 37.7223 44.3455C37.6665 44.3925 37.5376 44.5074 37.4674 44.6905L38.6925 45.16ZM38.8348 45.2328C38.9428 45.2005 39.0494 45.1654 39.1444 45.1252C39.2317 45.0883 39.3589 45.027 39.4713 44.9225C39.6041 44.7992 39.7168 44.6134 39.7247 44.3754C39.7314 44.1746 39.6588 44.0171 39.6165 43.9368L38.4558 44.5482C38.4541 44.545 38.4438 44.5253 38.4339 44.4925C38.4236 44.4589 38.4112 44.4031 38.4136 44.3317C38.4161 44.2566 38.4346 44.1794 38.4703 44.1076C38.5047 44.0384 38.5469 43.9907 38.5784 43.9614C38.6323 43.9113 38.6704 43.9013 38.6332 43.917C38.6037 43.9295 38.5504 43.9485 38.4583 43.9761L38.8348 45.2328ZM39.6165 43.9367C39.5731 43.8545 39.5101 43.7014 39.4873 43.6264L38.2322 44.0083C38.2807 44.1678 38.3764 44.3976 38.4559 44.5484L39.6165 43.9367ZM39.4873 43.6266C39.4001 43.3397 39.1857 43.1053 38.8756 43.0185C38.6095 42.9441 38.3589 43.0024 38.1835 43.0716C37.8253 43.2129 37.4883 43.5116 37.2399 43.8701L38.3181 44.6174C38.4607 44.4117 38.6084 44.3142 38.665 44.2919C38.697 44.2793 38.6363 44.3138 38.5222 44.2819C38.4581 44.264 38.3886 44.2273 38.3297 44.1674C38.2721 44.1088 38.2443 44.0482 38.2321 44.0081L39.4873 43.6266ZM37.2398 43.8701C37.1455 44.0063 37.101 44.0596 37.0785 44.0812C37.07 44.0894 37.1179 44.0427 37.2088 44.0294C37.2789 44.0192 37.3019 44.0413 37.2214 44.0128C37.1423 43.9847 37.0272 43.932 36.8377 43.8371L36.2503 45.0101C36.4378 45.104 36.6186 45.1909 36.783 45.2492C36.9461 45.3071 37.1603 45.3622 37.3979 45.3276C37.6564 45.29 37.8482 45.1613 37.9887 45.026C38.1152 44.9041 38.2247 44.7522 38.3182 44.6173L37.2398 43.8701ZM36.8378 43.8371C36.5801 43.708 36.0525 43.5544 35.6567 43.4706L35.385 44.754C35.7538 44.8321 36.1472 44.9584 36.2501 45.01L36.8378 43.8371ZM35.6567 43.4706C34.5495 43.2361 33.412 43.2964 32.4643 43.5926C31.5378 43.8821 30.676 44.4386 30.3162 45.2956L31.5258 45.8035C31.6734 45.452 32.1098 45.0778 32.8556 44.8448C33.5801 44.6184 34.4888 44.5643 35.385 44.754L35.6567 43.4706ZM30.3162 45.2956C30.291 45.3556 30.2714 45.4011 30.2544 45.4382C30.2373 45.4755 30.2266 45.4956 30.2207 45.5059C30.2101 45.524 30.234 45.4766 30.3018 45.4339C30.3653 45.3939 30.41 45.3947 30.3716 45.3991C30.3532 45.4012 30.324 45.4033 30.2773 45.4048C30.2309 45.4062 30.1754 45.4067 30.1048 45.4068L30.1078 46.7187C30.2451 46.7184 30.3914 46.7173 30.521 46.7024C30.657 46.6868 30.8311 46.651 31.0011 46.5439C31.1753 46.4342 31.2826 46.2893 31.3546 46.1656C31.4207 46.052 31.477 45.9197 31.5258 45.8035L30.3162 45.2956ZM30.1049 45.4068C29.4026 45.4084 28.7587 45.1203 28.3501 44.7277C27.9331 44.3269 27.852 43.9286 27.9601 43.6442L26.7339 43.1779C26.3733 44.1263 26.7981 45.0557 27.4411 45.6736C28.0925 46.2996 29.0625 46.721 30.1077 46.7187L30.1049 45.4068ZM27.9601 43.6442C27.9757 43.6031 28.0487 43.4582 28.5262 43.206C28.994 42.959 29.7329 42.6679 30.8946 42.2705L30.4699 41.0292C29.3068 41.4272 28.481 41.7463 27.9137 42.0459C27.3561 42.3403 26.9238 42.6783 26.7339 43.178L27.9601 43.6442ZM30.8946 42.2705C33.1943 41.4836 35.3768 40.3739 37.1472 39.1435C38.9022 37.9237 40.3149 36.5416 40.9941 35.1838L39.8209 34.5969C39.2851 35.6679 38.0799 36.8975 36.3985 38.0662C34.7324 39.2242 32.6597 40.2799 30.4699 41.0292L30.8946 42.2705ZM40.9941 35.1839C41.3841 34.4044 41.6278 33.6872 41.4961 32.9643C41.3639 32.2378 40.8815 31.6616 40.2423 31.0869L39.3652 32.0625C39.9579 32.5953 40.155 32.9222 40.2055 33.1992C40.2566 33.4799 40.1861 33.8668 39.8209 34.5969L40.9941 35.1839ZM40.2423 31.0869C39.8311 30.7171 39.0947 30.2632 38.3315 29.8576C37.5552 29.4451 36.6842 29.0474 35.9686 28.8033L35.5451 30.0449C36.1741 30.2595 36.9787 30.6243 37.7158 31.0161C38.466 31.4147 39.0808 31.8068 39.3652 32.0625L40.2423 31.0869ZM35.9687 28.8033L35.2472 28.5571L34.8235 29.7987L35.545 30.0449L35.9687 28.8033ZM35.6911 29.192L35.7176 27.9599L34.406 27.9317L34.3795 29.1638L35.6911 29.192ZM35.7176 27.9599C35.7898 24.6112 35.3484 20.4413 34.6196 17.6541L33.3504 17.986C34.0437 20.6374 34.476 24.6839 34.406 27.9316L35.7176 27.9599ZM34.6196 17.6541C33.1454 12.0162 29.4591 6.30267 25.3568 3.38567L24.5966 4.45482C28.4055 7.16319 31.9398 12.5913 33.3504 17.986L34.6196 17.6541ZM25.3568 3.38567C23.4997 2.06517 20.9502 1.02508 18.6151 0.629539L18.396 1.923C20.5452 2.28705 22.9079 3.25414 24.5966 4.45483L25.3568 3.38567ZM18.6151 0.629537C17.0412 0.362967 14.3287 0.260463 12.9232 0.419988L13.0712 1.72351C14.338 1.57972 16.9258 1.674 18.396 1.923L18.6151 0.629537Z" mask="url(#path-1-outside-1)"/></svg>